<?xml version="1.0" encoding="UTF-8" ?>
<!DOCTYPE svg PUBLIC "-//W3C//DTD SVG 1.1//EN" "http://www.w3.org/Graphics/SVG/1.1/DTD/svg11.dtd">
<svg width="250pt" height="250pt" viewBox="0 0 250 250" version="1.1" xmlns="http://www.w3.org/2000/svg">
<g id="#3b5998ff">
<path fill="#3b5998" opacity="1.00" d=" M 12.63 0.00 L 237.17 0.00 C 243.65 0.66 249.27 5.88 250.00 12.42 L 250.00 237.95 C 249.13 244.05 244.14 248.92 238.13 250.00 L 172.80 250.00 C 172.45 217.72 172.73 185.41 172.66 153.12 C 183.46 153.17 194.25 153.16 205.05 153.13 C 206.61 140.60 208.29 128.08 209.88 115.55 C 197.47 115.52 185.06 115.54 172.64 115.54 C 172.66 107.03 172.62 98.51 172.66 90.00 C 172.76 85.65 173.47 80.89 176.57 77.59 C 180.03 74.10 185.20 73.21 189.92 73.15 C 197.02 73.10 204.11 73.17 211.21 73.13 C 211.23 61.87 211.24 50.61 211.20 39.35 C 201.83 38.28 192.38 38.16 182.96 37.90 C 170.43 37.83 157.25 41.10 147.94 49.91 C 138.23 58.77 134.00 72.16 133.65 85.01 C 133.54 95.19 133.63 105.36 133.61 115.54 C 122.69 115.55 111.78 115.51 100.87 115.55 C 100.85 128.08 100.84 140.61 100.87 153.14 C 111.77 153.16 122.68 153.16 133.58 153.13 C 133.66 185.42 133.50 217.71 133.66 250.00 L 12.58 250.00 C 6.09 249.33 0.83 243.90 0.00 237.49 L 0.00 12.75 C 0.73 6.21 6.14 0.86 12.63 0.00 Z" />
</g>
<g id="#ffffffff">
<path fill="#ffffff" opacity="1.00" d=" M 147.94 49.91 C 157.25 41.10 170.43 37.83 182.96 37.90 C 192.38 38.16 201.83 38.28 211.20 39.35 C 211.24 50.61 211.23 61.87 211.21 73.13 C 204.11 73.17 197.02 73.10 189.92 73.15 C 185.20 73.21 180.03 74.10 176.57 77.59 C 173.47 80.89 172.76 85.65 172.66 90.00 C 172.62 98.51 172.66 107.03 172.64 115.54 C 185.06 115.54 197.47 115.52 209.88 115.55 C 208.29 128.08 206.61 140.60 205.05 153.13 C 194.25 153.16 183.46 153.17 172.66 153.12 C 172.73 185.41 172.45 217.72 172.80 250.00 L 133.66 250.00 C 133.50 217.71 133.66 185.42 133.58 153.13 C 122.68 153.16 111.77 153.16 100.87 153.14 C 100.84 140.61 100.85 128.08 100.87 115.55 C 111.78 115.51 122.69 115.55 133.61 115.54 C 133.63 105.36 133.54 95.19 133.65 85.01 C 134.00 72.16 138.23 58.77 147.94 49.91 Z" />
</g>
</svg>
