<?xml version="1.0" encoding="UTF-8" ?>
<!DOCTYPE svg PUBLIC "-//W3C//DTD SVG 1.1//EN" "http://www.w3.org/Graphics/SVG/1.1/DTD/svg11.dtd">
<svg width="512pt" height="512pt" viewBox="0 0 512 512" version="1.1" xmlns="http://www.w3.org/2000/svg">
<g id="#007bb5ff">
<path fill="#007bb5" opacity="1.00" d=" M 30.38 0.00 L 481.58 0.00 C 491.33 0.50 500.71 5.65 506.24 13.70 C 509.48 18.19 511.19 23.57 512.00 29.00 L 512.00 482.68 C 511.04 491.52 506.61 500.01 499.45 505.38 C 494.73 509.11 488.91 511.13 483.01 512.00 L 29.32 512.00 C 13.83 510.77 0.57 497.27 0.00 481.67 L 0.00 30.39 C 0.56 14.44 14.44 0.56 30.38 0.00 M 137.43 96.66 C 130.22 98.15 123.60 102.24 119.00 107.99 C 109.86 119.03 109.68 136.27 118.61 147.48 C 127.37 159.33 144.71 163.47 157.87 156.83 C 171.66 150.49 179.28 133.58 174.73 119.06 C 170.55 103.40 153.24 92.96 137.43 96.66 M 112.00 176.00 C 112.00 250.67 112.00 325.33 112.00 400.00 C 133.33 400.00 154.67 400.00 176.00 400.00 C 176.00 325.33 176.00 250.67 176.00 176.00 C 154.67 176.00 133.33 176.00 112.00 176.00 M 208.00 176.00 C 208.00 250.67 208.00 325.33 208.00 400.00 C 229.33 400.00 250.67 400.00 272.00 400.00 C 272.01 357.01 271.98 314.03 272.02 271.04 C 272.08 262.62 274.37 253.62 280.74 247.71 C 287.68 241.14 297.81 239.58 307.02 240.09 C 315.70 240.47 324.82 243.73 330.08 250.99 C 335.40 258.11 336.26 267.37 336.00 275.97 C 336.00 317.31 336.00 358.66 336.00 400.00 C 357.33 400.00 378.67 400.00 400.00 400.00 C 399.93 358.64 400.15 317.28 399.88 275.92 C 399.29 255.08 398.15 233.72 390.55 214.07 C 385.68 201.32 376.71 189.79 364.36 183.59 C 348.65 175.57 330.36 175.18 313.16 176.70 C 303.30 177.78 293.11 179.92 284.94 185.85 C 277.92 190.92 273.63 199.12 272.37 207.59 C 271.57 197.09 272.20 186.53 272.00 176.00 C 250.67 176.00 229.33 176.00 208.00 176.00 Z" />
</g>
<g id="#ffffffff">
<path fill="#ffffff" opacity="1.00" d=" M 137.43 96.66 C 153.24 92.96 170.55 103.40 174.73 119.06 C 179.28 133.58 171.66 150.49 157.87 156.83 C 144.71 163.47 127.37 159.33 118.61 147.48 C 109.68 136.27 109.86 119.03 119.00 107.99 C 123.60 102.24 130.22 98.15 137.43 96.66 Z" />
<path fill="#ffffff" opacity="1.00" d=" M 112.00 176.00 C 133.33 176.00 154.67 176.00 176.00 176.00 C 176.00 250.67 176.00 325.33 176.00 400.00 C 154.67 400.00 133.33 400.00 112.00 400.00 C 112.00 325.33 112.00 250.67 112.00 176.00 Z" />
<path fill="#ffffff" opacity="1.00" d=" M 208.00 176.00 C 229.33 176.00 250.67 176.00 272.00 176.00 C 272.20 186.53 271.57 197.09 272.37 207.59 C 273.63 199.12 277.92 190.92 284.94 185.85 C 293.11 179.92 303.30 177.78 313.16 176.70 C 330.36 175.18 348.65 175.57 364.36 183.59 C 376.71 189.79 385.68 201.32 390.55 214.07 C 398.15 233.72 399.29 255.08 399.88 275.92 C 400.15 317.28 399.93 358.64 400.00 400.00 C 378.67 400.00 357.33 400.00 336.00 400.00 C 336.00 358.66 336.00 317.31 336.00 275.97 C 336.26 267.37 335.40 258.11 330.08 250.99 C 324.82 243.73 315.70 240.47 307.02 240.09 C 297.81 239.58 287.68 241.14 280.74 247.71 C 274.37 253.62 272.08 262.62 272.02 271.04 C 271.98 314.03 272.01 357.01 272.00 400.00 C 250.67 400.00 229.33 400.00 208.00 400.00 C 208.00 325.33 208.00 250.67 208.00 176.00 Z" />
</g>
</svg>
