<?xml version="1.0" encoding="UTF-8" ?>
<!DOCTYPE svg PUBLIC "-//W3C//DTD SVG 1.1//EN" "http://www.w3.org/Graphics/SVG/1.1/DTD/svg11.dtd">
<svg width="342pt" height="318pt" viewBox="0 0 342 318" version="1.1" xmlns="http://www.w3.org/2000/svg">
<g id="#fefefeff">
<path fill="#fefefe" opacity="1.00" d=" M 0.00 0.00 L 0.13 0.00 C 0.10 0.05 0.03 0.15 0.00 0.20 L 0.00 0.00 Z" />
<path fill="#fefefe" opacity="1.00" d=" M 165.20 11.23 C 173.10 10.74 181.04 11.27 188.95 11.11 C 189.33 11.30 190.08 11.68 190.45 11.87 C 181.71 11.98 172.96 11.77 164.21 11.84 L 165.20 11.23 Z" />
<path fill="#fefefe" opacity="1.00" d=" M 193.14 12.42 C 194.29 11.55 197.63 11.12 197.92 12.92 C 196.31 13.23 194.58 13.33 193.14 12.42 Z" />
<path fill="#fefefe" opacity="1.00" d=" M 204.92 14.48 C 206.35 13.35 207.37 13.53 207.98 15.02 C 206.85 15.31 205.83 15.13 204.92 14.48 Z" />
<path fill="#fefefe" opacity="1.00" d=" M 218.09 17.23 L 218.95 16.81 L 219.87 17.30 L 219.88 18.19 C 219.43 17.95 218.54 17.47 218.09 17.23 Z" />
<path fill="#fefefe" opacity="1.00" d=" M 194.90 23.55 C 196.24 22.34 197.21 22.48 197.82 23.96 C 196.78 24.33 195.81 24.19 194.90 23.55 Z" />
<path fill="#fefefe" opacity="1.00" d=" M 198.65 23.75 C 201.18 23.24 203.87 24.28 206.32 24.92 C 204.74 24.93 203.16 24.90 201.58 24.83 C 200.85 24.56 199.39 24.02 198.65 23.75 Z" />
<path fill="#fefefe" opacity="1.00" d=" M 206.45 24.92 C 208.74 25.54 211.16 25.90 213.25 27.09 C 210.76 27.14 208.34 26.62 206.45 24.92 Z" />
<path fill="#fefefe" opacity="1.00" d=" M 128.86 30.97 C 129.47 29.26 132.51 28.39 134.12 29.24 C 132.71 30.49 130.72 31.04 128.86 30.97 Z" />
<path fill="#fefefe" opacity="1.00" d=" M 127.14 31.28 C 127.57 31.20 128.43 31.05 128.86 30.97 C 128.38 32.45 127.80 32.55 127.14 31.28 Z" />
<path fill="#fefefe" opacity="1.00" d=" M 239.21 37.64 C 239.34 37.71 239.60 37.87 239.73 37.95 C 239.60 37.87 239.34 37.71 239.21 37.64 Z" />
<path fill="#fefefe" opacity="1.00" d=" M 239.73 37.95 C 241.44 37.29 242.56 37.80 243.09 39.49 C 241.85 39.23 240.73 38.71 239.73 37.95 Z" />
<path fill="#fefefe" opacity="1.00" d=" M 243.09 39.49 C 243.25 39.63 243.58 39.91 243.74 40.05 C 243.58 39.91 243.25 39.63 243.09 39.49 Z" />
<path fill="#fefefe" opacity="1.00" d=" M 243.74 40.05 C 243.92 40.22 244.29 40.55 244.47 40.72 L 244.01 40.55 L 243.74 40.05 Z" />
<path fill="#fefefe" opacity="1.00" d=" M 106.04 43.30 C 106.20 43.15 106.51 42.86 106.66 42.71 C 106.51 42.86 106.20 43.15 106.04 43.30 Z" />
<path fill="#fefefe" opacity="1.00" d=" M 104.95 44.00 C 105.22 43.83 105.77 43.47 106.04 43.30 C 105.77 43.47 105.22 43.83 104.95 44.00 Z" />
<path fill="#fefefe" opacity="1.00" d=" M 166.58 43.02 C 171.86 42.99 177.13 42.99 182.41 43.03 C 177.13 43.24 171.85 43.25 166.58 43.02 Z" />
<path fill="#fefefe" opacity="1.00" d=" M 104.29 44.33 C 104.45 44.25 104.78 44.08 104.95 44.00 C 104.78 44.08 104.45 44.25 104.29 44.33 Z" />
<path fill="#fefefe" opacity="1.00" d=" M 123.75 56.84 C 138.08 49.48 153.89 44.96 170.03 44.43 C 189.12 43.83 208.68 47.69 225.34 57.26 C 225.45 57.31 225.66 57.43 225.76 57.49 C 233.76 61.29 240.66 66.95 247.46 72.54 C 248.25 73.48 249.77 74.29 249.71 75.68 C 248.25 77.77 246.26 79.51 244.10 80.85 C 242.54 80.26 241.45 78.91 240.18 77.89 C 221.02 60.57 194.75 51.67 169.03 53.03 C 147.25 54.41 125.74 62.72 109.43 77.35 C 109.27 77.46 108.96 77.70 108.80 77.82 L 107.95 78.41 C 107.75 78.56 107.36 78.86 107.16 79.02 C 107.03 79.14 106.76 79.40 106.63 79.53 C 104.97 81.27 103.29 82.98 101.54 84.64 C 101.43 84.75 101.21 84.98 101.09 85.09 C 100.99 85.22 100.78 85.46 100.67 85.59 C 92.68 95.12 85.91 105.80 81.76 117.58 C 74.89 136.45 73.76 157.44 79.29 176.79 C 85.97 201.76 103.38 223.34 125.64 236.24 C 126.24 237.71 127.74 238.44 129.28 238.38 C 129.39 238.43 129.60 238.53 129.71 238.58 C 149.72 248.61 173.06 251.50 194.95 246.96 C 213.39 243.17 230.60 233.76 243.88 220.43 C 245.96 222.56 248.19 224.55 250.74 226.12 C 231.06 246.18 203.08 257.92 174.97 257.80 C 159.80 258.00 144.75 254.55 130.80 248.72 C 130.26 248.46 129.18 247.94 128.64 247.68 C 128.49 247.63 128.19 247.52 128.04 247.46 C 127.44 247.23 126.24 246.77 125.64 246.54 C 125.44 246.43 125.05 246.19 124.86 246.08 C 124.58 245.90 124.03 245.55 123.75 245.38 L 122.89 244.78 C 122.74 244.68 122.44 244.49 122.29 244.40 C 121.63 244.04 120.32 243.34 119.66 242.99 C 119.21 242.74 118.31 242.25 117.86 242.01 C 117.29 241.68 116.14 241.03 115.56 240.70 C 115.40 240.62 115.08 240.46 114.92 240.38 L 114.01 239.82 C 114.01 238.44 113.27 237.79 111.80 237.88 C 111.31 237.64 110.33 237.16 109.85 236.91 C 109.66 236.66 109.28 236.15 109.09 235.90 C 108.88 235.76 108.46 235.48 108.26 235.34 C 107.93 234.29 107.22 233.66 106.14 233.47 C 88.46 218.95 75.48 198.70 70.19 176.41 C 67.09 164.82 66.79 152.72 67.56 140.81 C 70.18 114.32 82.94 88.80 103.17 71.40 C 105.06 70.12 106.84 68.67 108.20 66.82 C 108.34 66.69 108.62 66.43 108.76 66.30 C 110.17 66.44 110.99 65.83 111.22 64.47 C 113.48 63.02 115.78 61.65 118.07 60.27 C 119.50 60.50 120.76 59.66 121.14 58.28 L 121.98 58.29 C 122.43 57.93 123.31 57.20 123.75 56.84 Z" />
<path fill="#fefefe" opacity="1.00" d=" M 126.26 53.50 C 126.35 53.45 126.51 53.35 126.59 53.29 C 126.51 53.35 126.35 53.45 126.26 53.50 Z" />
<path fill="#fefefe" opacity="1.00" d=" M 150.11 57.95 C 157.49 55.74 165.28 54.95 172.97 55.25 C 178.10 55.41 183.31 54.72 188.36 55.87 C 191.64 56.54 195.34 56.11 198.20 58.13 C 194.63 57.37 191.09 56.73 187.42 56.80 L 186.59 56.05 C 178.53 56.02 170.44 55.80 162.39 56.14 L 161.52 56.88 C 157.60 56.40 153.94 57.97 150.11 57.95 Z" />
<path fill="#fefefe" opacity="1.00" d=" M 146.98 58.81 C 147.70 57.97 148.67 57.69 149.89 57.98 C 149.48 59.42 148.51 59.70 146.98 58.81 Z" />
<path fill="#fefefe" opacity="1.00" d=" M 198.79 58.43 C 199.67 57.35 201.29 57.96 202.17 58.72 C 201.33 58.65 199.64 58.50 198.79 58.43 Z" />
<path fill="#fefefe" opacity="1.00" d=" M 143.35 59.95 C 143.76 58.77 145.63 58.28 146.28 59.50 C 145.55 59.61 144.09 59.84 143.35 59.95 Z" />
<path fill="#fefefe" opacity="1.00" d=" M 203.00 59.06 C 204.16 58.86 205.23 59.07 206.22 59.71 C 204.67 60.74 203.60 60.52 203.00 59.06 Z" />
<path fill="#fefefe" opacity="1.00" d=" M 113.24 60.50 C 113.32 60.44 113.49 60.32 113.57 60.26 C 113.49 60.32 113.32 60.44 113.24 60.50 Z" />
<path fill="#fefefe" opacity="1.00" d=" M 286.50 62.29 C 286.56 62.39 286.69 62.58 286.75 62.68 C 286.69 62.58 286.56 62.39 286.50 62.29 Z" />
<path fill="#fefefe" opacity="1.00" d=" M 213.05 62.95 C 215.03 62.63 216.96 63.53 218.13 65.14 C 216.57 64.95 213.28 64.78 213.05 62.95 Z" />
<path fill="#fefefe" opacity="1.00" d=" M 218.13 65.14 C 218.25 65.26 218.50 65.50 218.63 65.63 C 218.50 65.50 218.25 65.26 218.13 65.14 Z" />
<path fill="#fefefe" opacity="1.00" d=" M 219.68 66.07 C 224.69 67.47 228.23 71.52 232.65 74.07 C 232.09 74.02 230.97 73.90 230.41 73.85 C 229.50 72.90 228.57 71.96 227.67 71.01 C 227.08 71.01 225.90 71.00 225.31 71.00 C 225.26 67.82 221.46 67.83 219.68 66.07 Z" />
<path fill="#fefefe" opacity="1.00" d=" M 115.19 75.17 C 117.04 72.83 120.09 71.99 122.41 70.23 C 121.18 71.39 119.96 72.65 118.35 73.26 C 117.29 73.89 116.24 74.52 115.19 75.17 Z" />
<path fill="#fefefe" opacity="1.00" d=" M 234.11 75.07 C 235.36 75.46 236.71 75.73 237.72 76.64 C 237.78 76.92 237.89 77.49 237.95 77.77 C 236.47 78.01 233.72 76.88 234.11 75.07 Z" />
<path fill="#fefefe" opacity="1.00" d=" M 151.15 76.63 C 151.28 76.53 151.54 76.33 151.66 76.23 C 151.54 76.33 151.28 76.53 151.15 76.63 Z" />
<path fill="#fefefe" opacity="1.00" d=" M 156.83 77.05 C 164.69 75.04 172.88 74.95 180.94 75.31 C 198.67 76.69 215.77 84.70 228.30 97.30 L 228.12 97.59 C 227.23 98.55 226.33 99.50 225.42 100.45 C 225.30 100.57 225.06 100.82 224.94 100.94 C 224.81 101.05 224.56 101.27 224.43 101.39 C 224.03 101.70 223.24 102.33 222.84 102.64 C 222.39 102.60 221.50 102.52 221.06 102.48 C 220.57 100.39 218.70 99.29 216.90 98.43 C 216.62 98.25 216.05 97.88 215.76 97.70 C 215.57 97.53 215.18 97.21 214.99 97.05 C 214.86 96.95 214.60 96.75 214.47 96.65 C 197.84 84.67 175.82 80.61 156.08 86.28 C 140.65 90.62 126.86 100.53 117.94 113.86 C 108.55 127.51 104.67 144.77 107.02 161.15 C 109.67 178.34 119.02 194.54 133.05 204.93 C 144.66 213.90 159.28 218.72 173.93 218.75 C 191.31 219.10 208.43 211.90 221.05 200.10 C 220.99 199.86 220.87 199.39 220.81 199.15 C 220.47 199.03 219.79 198.80 219.45 198.69 L 218.97 198.20 C 220.46 197.71 221.91 197.06 223.51 196.96 C 225.54 198.84 227.09 201.61 229.91 202.37 L 229.88 203.47 C 227.03 201.84 225.15 198.95 222.22 197.48 L 222.02 198.10 C 223.15 200.99 226.36 202.48 228.24 204.90 C 219.09 214.13 207.53 220.92 194.96 224.28 C 193.58 223.89 191.94 223.96 191.20 225.39 C 189.12 225.62 187.07 225.99 185.03 226.44 C 183.50 225.68 181.11 224.93 180.10 226.86 C 175.35 226.62 170.60 226.86 165.85 226.65 C 164.15 225.65 161.85 224.34 160.01 225.79 C 157.46 225.43 154.98 224.75 152.63 223.72 C 152.48 223.67 152.18 223.59 152.03 223.55 L 151.14 223.39 C 150.22 222.32 149.10 221.98 147.79 222.37 C 147.31 221.14 146.37 220.65 144.97 220.91 C 135.67 217.77 127.80 211.53 120.56 205.07 C 119.97 205.25 119.37 205.44 118.78 205.62 L 120.14 204.34 C 115.76 200.11 112.06 195.23 108.95 190.01 C 108.37 188.71 107.15 188.11 105.81 187.83 L 107.72 187.74 C 98.68 172.28 96.20 153.34 99.72 135.88 C 105.21 107.42 128.59 83.45 156.83 77.05 Z" />
<path fill="#fefefe" opacity="1.00" d=" M 197.49 76.21 C 197.57 76.28 197.73 76.42 197.82 76.49 C 197.73 76.42 197.57 76.28 197.49 76.21 Z" />
<path fill="#fefefe" opacity="1.00" d=" M 134.94 84.07 C 134.96 82.31 135.76 81.72 137.35 82.28 C 136.78 83.20 135.98 83.80 134.94 84.07 Z" />
<path fill="#fefefe" opacity="1.00" d=" M 213.51 83.28 C 213.65 83.46 213.94 83.80 214.09 83.98 C 213.94 83.80 213.65 83.46 213.51 83.28 Z" />
<path fill="#fefefe" opacity="1.00" d=" M 214.09 83.98 C 214.24 84.08 214.54 84.29 214.69 84.39 C 214.54 84.29 214.24 84.08 214.09 83.98 Z" />
<path fill="#fefefe" opacity="1.00" d=" M 148.30 90.62 C 157.15 87.31 166.61 85.45 176.03 85.28 C 185.25 86.51 195.17 87.13 203.25 92.12 C 201.60 91.82 200.09 91.08 198.51 90.56 C 197.52 90.20 196.51 89.90 195.48 89.68 C 194.53 89.17 193.52 88.84 192.44 88.70 C 191.04 87.56 189.11 88.02 187.46 87.80 C 185.32 85.80 181.64 88.13 179.57 86.06 C 175.97 86.36 171.68 84.94 168.52 86.86 C 166.23 87.19 163.51 86.30 161.54 87.76 C 160.19 88.01 158.59 87.69 157.53 88.77 C 156.18 88.96 154.69 88.76 153.55 89.67 C 152.42 89.78 151.42 90.16 150.54 90.81 C 149.82 90.89 148.38 91.05 147.66 91.13 L 148.30 90.62 Z" />
<path fill="#fefefe" opacity="1.00" d=" M 99.27 90.99 C 99.67 89.82 100.20 88.66 101.19 87.86 C 101.84 89.09 101.09 92.12 99.27 90.99 Z" />
<path fill="#fefefe" opacity="1.00" d=" M 124.37 90.67 C 124.44 90.60 124.59 90.45 124.66 90.37 C 124.59 90.45 124.44 90.60 124.37 90.67 Z" />
<path fill="#fefefe" opacity="1.00" d=" M 141.31 94.92 C 142.59 93.55 144.46 92.17 146.31 91.73 C 145.74 93.59 143.46 96.03 141.31 94.92 Z" />
<path fill="#fefefe" opacity="1.00" d=" M 203.25 92.12 C 204.87 92.87 206.89 93.18 207.91 94.82 C 206.48 95.03 201.83 94.47 203.25 92.12 Z" />
<path fill="#fefefe" opacity="1.00" d=" M 89.36 105.34 C 92.17 101.98 92.89 97.33 96.12 94.26 C 96.99 96.83 93.30 97.19 93.78 99.53 C 92.36 101.44 91.54 103.71 90.76 105.94 C 90.33 105.91 89.47 105.86 89.04 105.84 C 88.99 106.52 88.87 107.87 88.82 108.55 C 88.54 109.17 87.97 110.42 87.69 111.04 L 86.59 110.70 C 87.45 108.89 88.11 106.94 89.36 105.34 Z" />
<path fill="#fefefe" opacity="1.00" d=" M 138.20 96.84 C 138.43 96.55 138.88 95.96 139.10 95.66 L 139.83 95.86 C 139.61 96.20 139.17 96.87 138.95 97.20 L 138.20 96.84 Z" />
<path fill="#fefefe" opacity="1.00" d=" M 208.99 95.79 C 209.51 96.10 210.56 96.73 211.08 97.05 C 210.58 96.95 209.60 96.76 209.11 96.66 L 208.99 95.79 Z" />
<path fill="#fefefe" opacity="1.00" d=" M 135.29 98.79 C 135.74 98.56 136.65 98.12 137.11 97.90 L 136.97 98.75 C 136.55 98.76 135.71 98.78 135.29 98.79 Z" />
<path fill="#fefefe" opacity="1.00" d=" M 126.07 107.09 C 128.47 104.85 130.63 102.30 133.41 100.51 C 131.25 102.83 129.28 106.28 126.07 107.09 Z" />
<path fill="#fefefe" opacity="1.00" d=" M 117.69 118.02 C 120.18 114.15 122.62 110.19 126.07 107.09 C 126.09 109.25 124.01 110.48 122.37 111.45 C 121.42 113.86 120.18 117.06 117.69 118.02 Z" />
<path fill="#fefefe" opacity="1.00" d=" M 83.22 120.27 C 84.17 117.03 85.14 113.77 86.59 110.70 C 87.17 113.41 84.96 116.00 84.63 118.74 L 83.22 120.27 Z" />
<path fill="#fefefe" opacity="1.00" d=" M 314.02 114.34 L 314.66 114.22 L 314.79 114.85 L 314.17 114.97 L 314.02 114.34 Z" />
<path fill="#fefefe" opacity="1.00" d=" M 314.40 116.05 C 314.48 116.21 314.63 116.55 314.71 116.71 C 314.63 116.55 314.48 116.21 314.40 116.05 Z" />
<path fill="#fefefe" opacity="1.00" d=" M 111.52 132.38 C 113.30 127.49 114.52 122.25 117.69 118.02 C 118.77 119.73 116.07 120.52 116.00 122.14 C 115.49 124.38 114.01 126.26 113.65 128.55 C 113.04 129.61 112.74 130.75 112.74 131.99 L 111.52 132.38 Z" />
<path fill="#fefefe" opacity="1.00" d=" M 82.46 121.70 C 82.84 121.36 83.61 120.67 84.00 120.33 L 84.16 121.19 L 83.40 121.92 L 82.46 121.70 Z" />
<path fill="#fefefe" opacity="1.00" d=" M 316.24 122.06 L 316.84 122.17 C 316.67 122.29 316.31 122.55 316.14 122.67 L 316.24 122.06 Z" />
<path fill="#fefefe" opacity="1.00" d=" M 81.64 123.18 L 82.08 122.40 C 81.70 124.02 82.55 126.19 81.07 127.41 C 80.96 128.78 80.88 130.15 80.81 131.53 C 79.32 133.00 80.19 135.32 80.00 137.17 L 78.95 136.41 C 79.64 131.96 80.36 127.50 81.64 123.18 Z" />
<path fill="#fefefe" opacity="1.00" d=" M 317.25 129.25 C 317.28 129.38 317.33 129.62 317.36 129.75 C 317.33 129.62 317.28 129.38 317.25 129.25 Z" />
<path fill="#fefefe" opacity="1.00" d=" M 307.77 136.06 C 306.35 134.90 306.64 132.51 307.38 131.04 C 308.37 132.40 308.51 134.55 307.77 136.06 Z" />
<path fill="#fefefe" opacity="1.00" d=" M 111.33 132.78 C 111.38 132.68 111.47 132.48 111.52 132.38 C 111.47 132.48 111.38 132.68 111.33 132.78 Z" />
<path fill="#fefefe" opacity="1.00" d=" M 317.67 132.29 L 318.49 131.99 L 319.11 132.58 C 318.85 132.87 318.32 133.43 318.06 133.71 C 317.96 133.36 317.77 132.64 317.67 132.29 Z" />
<path fill="#fefefe" opacity="1.00" d=" M 109.91 137.20 C 109.76 135.94 110.05 134.79 110.80 133.75 C 111.63 135.31 111.33 136.46 109.91 137.20 Z" />
<path fill="#fefefe" opacity="1.00" d=" M 78.43 137.98 L 78.79 136.94 C 79.36 145.81 78.62 154.74 79.15 163.61 L 79.84 164.48 C 79.86 166.74 80.26 169.06 79.73 171.29 L 79.59 170.41 C 79.28 166.25 77.97 162.18 78.26 157.98 C 78.46 151.31 78.10 144.64 78.43 137.98 Z" />
<path fill="#fefefe" opacity="1.00" d=" M 108.71 142.78 C 108.82 141.68 109.18 140.65 109.78 139.71 C 109.70 140.51 109.54 142.10 109.46 142.89 L 108.71 142.78 Z" />
<path fill="#fefefe" opacity="1.00" d=" M 108.59 143.57 L 108.71 142.78 C 109.47 148.34 108.52 154.03 109.16 159.60 L 109.78 160.47 C 110.07 162.45 109.46 164.76 110.74 166.47 C 110.84 167.54 110.94 168.61 111.04 169.69 C 111.48 170.09 112.34 170.91 112.78 171.31 C 112.78 173.20 113.83 174.80 114.67 176.42 C 114.79 177.52 115.14 178.54 115.73 179.47 C 115.82 180.00 115.99 181.06 116.08 181.60 C 119.65 185.63 122.15 190.46 125.75 194.46 C 125.85 194.82 126.04 195.55 126.14 195.91 C 122.87 193.09 121.08 189.05 118.31 185.80 C 116.56 183.71 115.23 181.32 114.53 178.68 C 113.14 173.64 109.68 169.32 109.40 163.97 C 107.95 157.27 108.28 150.37 108.59 143.57 Z" />
<path fill="#fefefe" opacity="1.00" d=" M 308.18 145.26 C 308.32 145.42 308.60 145.75 308.75 145.92 C 308.60 145.75 308.32 145.42 308.18 145.26 Z" />
<path fill="#fefefe" opacity="1.00" d=" M 79.73 171.29 L 80.43 171.16 C 80.56 171.94 80.81 173.50 80.94 174.28 C 80.12 173.50 79.72 172.51 79.73 171.29 Z" />
<path fill="#fefefe" opacity="1.00" d=" M 80.84 174.90 L 81.72 175.08 C 81.71 175.52 81.70 176.40 81.69 176.84 C 81.48 176.36 81.05 175.38 80.84 174.90 Z" />
<path fill="#fefefe" opacity="1.00" d=" M 82.64 180.62 C 83.59 178.52 85.10 182.32 83.63 183.00 C 83.39 182.40 82.89 181.22 82.64 180.62 Z" />
<path fill="#fefefe" opacity="1.00" d=" M 83.63 183.00 C 85.47 183.08 86.07 186.45 85.81 187.92 C 84.02 186.96 83.88 184.78 83.63 183.00 Z" />
<path fill="#fefefe" opacity="1.00" d=" M 85.06 187.68 C 87.38 190.00 89.16 193.27 89.09 196.64 C 87.72 193.66 86.36 190.68 85.06 187.68 Z" />
<path fill="#fefefe" opacity="1.00" d=" M 109.28 195.33 C 109.35 195.43 109.49 195.62 109.56 195.71 C 109.49 195.62 109.35 195.43 109.28 195.33 Z" />
<path fill="#fefefe" opacity="1.00" d=" M 127.93 196.97 C 129.30 197.04 130.04 197.77 130.14 199.16 C 128.73 199.11 127.99 198.38 127.93 196.97 Z" />
<path fill="#fefefe" opacity="1.00" d=" M 210.72 205.23 C 214.02 203.88 215.52 199.61 218.94 198.91 C 214.10 203.56 209.02 209.03 201.99 209.93 L 202.00 209.15 C 205.39 209.25 207.89 206.69 210.72 205.23 Z" />
<path fill="#fefefe" opacity="1.00" d=" M 131.00 199.78 C 135.22 202.66 138.64 206.60 143.59 208.30 C 145.01 209.09 146.48 209.82 148.01 210.37 C 147.97 210.76 147.88 211.52 147.83 211.91 C 144.25 208.59 139.05 207.84 135.58 204.35 C 134.07 202.82 131.69 201.97 131.00 199.78 Z" />
<path fill="#fefefe" opacity="1.00" d=" M 94.63 205.18 L 95.47 205.04 C 95.61 205.46 95.89 206.29 96.02 206.71 L 95.24 206.63 C 95.09 206.27 94.78 205.54 94.63 205.18 Z" />
<path fill="#fefefe" opacity="1.00" d=" M 97.50 208.00 L 97.76 207.68 C 99.77 208.26 100.44 211.12 100.15 212.98 C 98.84 211.64 97.60 209.92 97.50 208.00 Z" />
<path fill="#fefefe" opacity="1.00" d=" M 147.83 211.91 C 148.50 211.99 149.85 212.14 150.52 212.22 C 151.42 212.87 152.43 213.25 153.55 213.34 C 154.70 214.22 156.20 214.07 157.55 214.26 C 158.92 215.45 160.86 214.97 162.52 215.23 C 162.90 215.42 163.68 215.78 164.06 215.96 C 171.00 216.12 177.94 215.97 184.88 216.01 L 184.78 216.68 C 177.86 216.36 170.93 216.91 164.03 216.43 C 158.74 215.44 153.31 214.60 148.38 212.35 L 147.83 211.91 Z" />
<path fill="#fefefe" opacity="1.00" d=" M 100.15 212.98 C 100.25 213.08 100.45 213.30 100.55 213.40 C 100.45 213.30 100.25 213.08 100.15 212.98 Z" />
<path fill="#fefefe" opacity="1.00" d=" M 100.55 213.40 C 102.66 214.68 104.06 217.09 106.75 217.23 C 107.04 219.58 109.65 220.53 110.48 222.64 C 108.52 221.60 107.09 219.91 105.86 218.11 C 103.95 216.71 102.16 215.14 100.55 213.40 Z" />
<path fill="#fefefe" opacity="1.00" d=" M 62.25 217.95 L 62.98 218.19 C 62.98 218.57 62.98 219.35 62.98 219.73 C 62.68 219.48 62.08 218.98 61.78 218.72 L 62.25 217.95 Z" />
<path fill="#fefefe" opacity="1.00" d=" M 135.22 218.48 C 135.32 218.56 135.52 218.72 135.62 218.80 C 135.52 218.72 135.32 218.56 135.22 218.48 Z" />
<path fill="#fefefe" opacity="1.00" d=" M 136.94 219.06 C 138.64 219.28 140.05 220.31 141.37 221.33 L 141.60 221.67 C 139.93 222.27 136.92 220.98 136.94 219.06 Z" />
<path fill="#fefefe" opacity="1.00" d=" M 64.01 221.11 L 64.62 220.92 C 64.88 221.50 65.40 222.68 65.65 223.26 C 64.15 223.47 63.60 222.75 64.01 221.11 Z" />
<path fill="#fefefe" opacity="1.00" d=" M 90.88 221.79 C 92.60 223.56 94.38 225.29 96.12 227.05 C 93.92 225.87 92.29 223.80 90.88 221.79 Z" />
<path fill="#fefefe" opacity="1.00" d=" M 142.20 222.50 C 142.28 222.61 142.45 222.84 142.53 222.96 C 142.45 222.84 142.28 222.61 142.20 222.50 Z" />
<path fill="#fefefe" opacity="1.00" d=" M 111.41 223.26 C 111.50 223.32 111.69 223.46 111.79 223.53 C 111.69 223.46 111.50 223.32 111.41 223.26 Z" />
<path fill="#fefefe" opacity="1.00" d=" M 66.22 225.00 C 66.17 224.85 66.08 224.56 66.03 224.42 L 66.22 225.00 Z" />
<path fill="#fefefe" opacity="1.00" d=" M 66.22 225.00 C 66.43 225.14 66.87 225.42 67.09 225.57 C 66.87 225.42 66.43 225.14 66.22 225.00 Z" />
<path fill="#fefefe" opacity="1.00" d=" M 67.09 225.57 C 67.38 226.15 67.98 227.32 68.27 227.90 L 67.39 227.62 C 67.32 227.10 67.16 226.08 67.09 225.57 Z" />
<path fill="#fefefe" opacity="1.00" d=" M 158.30 227.30 L 158.88 227.25 L 158.99 227.95 C 158.81 227.78 158.47 227.46 158.30 227.30 Z" />
<path fill="#fefefe" opacity="1.00" d=" M 68.27 227.90 C 68.32 228.07 68.42 228.40 68.47 228.56 C 68.42 228.40 68.32 228.07 68.27 227.90 Z" />
<path fill="#fefefe" opacity="1.00" d=" M 96.84 227.77 C 98.62 229.47 100.28 231.30 102.08 233.00 C 99.89 231.82 98.23 229.79 96.84 227.77 Z" />
<path fill="#fefefe" opacity="1.00" d=" M 117.09 228.18 C 117.25 228.29 117.56 228.50 117.71 228.61 C 117.56 228.50 117.25 228.29 117.09 228.18 Z" />
<path fill="#fefefe" opacity="1.00" d=" M 163.32 228.36 C 169.84 228.87 176.36 228.89 182.90 228.92 C 176.41 228.96 169.86 228.99 163.45 229.38 C 163.42 229.13 163.35 228.61 163.32 228.36 Z" />
<path fill="#fefefe" opacity="1.00" d=" M 119.86 230.15 C 121.56 229.05 124.01 231.43 124.04 233.04 C 122.29 232.69 120.91 231.54 119.86 230.15 Z" />
<path fill="#fefefe" opacity="1.00" d=" M 103.17 233.54 C 103.27 233.60 103.47 233.71 103.57 233.77 C 103.47 233.71 103.27 233.60 103.17 233.54 Z" />
<path fill="#fefefe" opacity="1.00" d=" M 105.79 235.30 L 106.41 235.55 L 106.20 236.12 L 105.58 235.89 L 105.79 235.30 Z" />
<path fill="#fefefe" opacity="1.00" d=" M 106.20 236.12 C 106.38 236.33 106.73 236.76 106.91 236.98 C 106.73 236.76 106.38 236.33 106.20 236.12 Z" />
<path fill="#fefefe" opacity="1.00" d=" M 106.91 236.98 C 107.18 237.15 107.72 237.49 107.99 237.66 C 107.72 237.49 107.18 237.15 106.91 236.98 Z" />
<path fill="#fefefe" opacity="1.00" d=" M 140.48 240.63 C 141.86 241.67 144.54 241.59 145.21 243.25 C 143.34 243.54 140.94 242.66 140.48 240.63 Z" />
<path fill="#fefefe" opacity="1.00" d=" M 145.21 243.18 C 146.05 243.16 147.72 243.13 148.56 243.11 C 149.73 244.64 151.90 243.88 153.55 244.18 C 155.19 245.87 157.94 244.28 159.80 245.72 C 154.84 245.87 149.88 244.80 145.21 243.18 Z" />
<path fill="#fefefe" opacity="1.00" d=" M 218.18 278.92 C 218.95 278.18 219.85 277.86 220.89 277.96 C 220.54 279.65 219.64 279.97 218.18 278.92 Z" />
<path fill="#fefefe" opacity="1.00" d=" M 151.25 283.00 C 152.52 283.03 154.43 282.44 155.15 283.89 C 154.09 284.51 151.30 284.57 151.25 283.00 Z" />
<path fill="#fefefe" opacity="1.00" d=" M 155.15 283.89 C 156.79 283.83 158.51 283.73 160.03 284.46 C 158.85 285.48 155.38 285.84 155.15 283.89 Z" />
<path fill="#fefefe" opacity="1.00" d=" M 161.17 284.90 C 164.91 285.29 168.68 284.89 172.43 285.23 L 173.54 285.73 C 169.38 285.97 165.21 285.72 161.04 285.77 L 161.17 284.90 Z" />
<path fill="#fefefe" opacity="1.00" d=" M 207.45 292.94 L 207.96 292.92 C 207.83 292.92 207.58 292.93 207.45 292.94 Z" />
<path fill="#fefefe" opacity="1.00" d=" M 202.24 293.78 L 202.73 293.77 C 202.61 293.78 202.37 293.78 202.24 293.78 Z" />
</g>
<g id="#fece83ff">
<path fill="#fece83" opacity="1.00" d=" M 159.30 12.04 C 160.93 11.99 162.57 11.91 164.21 11.84 C 172.96 11.77 181.71 11.98 190.45 11.87 C 191.13 12.01 192.47 12.28 193.14 12.42 C 194.58 13.33 196.31 13.23 197.92 12.92 C 199.55 12.86 201.19 12.97 202.83 13.01 C 203.35 13.38 204.40 14.12 204.92 14.48 C 205.83 15.13 206.85 15.31 207.98 15.02 C 210.63 14.84 214.18 14.97 215.79 17.39 C 216.37 17.35 217.52 17.27 218.09 17.23 C 218.54 17.47 219.43 17.95 219.88 18.19 C 220.56 18.16 221.92 18.09 222.60 18.06 C 223.61 18.99 224.37 21.17 226.17 20.31 C 227.84 19.56 228.72 21.49 229.93 22.20 C 231.62 22.43 233.30 22.76 234.97 23.08 L 235.12 24.34 C 235.54 24.23 236.39 24.01 236.82 23.90 L 237.22 25.23 C 237.71 25.29 238.68 25.39 239.16 25.44 C 239.49 27.53 241.30 25.72 242.37 25.80 C 243.32 26.88 244.26 27.97 245.21 29.06 C 247.64 29.75 249.46 31.78 251.98 32.18 L 252.09 33.41 C 252.48 33.29 253.28 33.07 253.67 32.95 C 254.39 34.12 255.32 35.13 256.29 36.10 C 258.01 36.43 259.11 37.88 260.34 38.99 C 261.97 39.57 263.14 40.85 264.37 42.00 C 267.71 43.70 269.91 46.99 273.23 48.77 C 276.14 52.70 280.64 55.37 282.98 59.67 C 284.04 60.67 285.02 61.88 286.50 62.29 C 286.56 62.39 286.69 62.58 286.75 62.68 C 289.01 66.45 292.03 69.66 294.38 73.37 C 295.40 75.42 297.45 76.90 297.88 79.24 C 299.30 80.86 301.30 82.26 301.06 84.69 C 302.54 85.42 302.64 87.10 303.41 88.37 C 303.98 89.55 304.54 90.74 304.79 92.03 C 308.30 93.41 307.95 98.04 308.83 101.15 L 309.66 101.20 C 309.94 104.94 311.99 108.32 312.94 111.94 C 313.21 112.54 313.75 113.74 314.02 114.34 L 314.17 114.97 L 314.40 116.05 C 314.48 116.21 314.63 116.55 314.71 116.71 C 313.84 118.92 316.09 120.08 316.24 122.06 L 316.14 122.67 L 315.92 123.72 C 318.16 124.41 315.80 127.62 317.25 129.25 C 317.28 129.38 317.33 129.62 317.36 129.75 C 317.44 130.38 317.59 131.65 317.67 132.29 C 317.77 132.64 317.96 133.36 318.06 133.71 C 318.26 134.12 318.68 134.92 318.89 135.32 C 318.71 138.40 318.56 141.48 318.53 144.57 L 319.34 144.71 C 319.57 151.97 320.88 159.38 319.26 166.56 L 318.30 166.30 C 318.49 167.41 318.88 169.63 319.07 170.73 L 317.68 171.29 C 319.84 172.19 319.03 173.94 317.46 174.86 C 317.61 175.64 317.91 177.18 318.06 177.95 L 316.49 178.15 C 316.87 178.42 317.61 178.95 317.99 179.22 L 318.00 179.80 C 317.60 179.99 316.81 180.38 316.41 180.57 C 320.11 180.94 315.93 182.91 315.41 184.09 C 317.36 184.66 317.49 185.44 315.82 186.44 C 315.79 187.53 315.80 188.63 315.87 189.72 C 315.07 190.37 314.28 191.02 313.50 191.68 L 315.01 192.07 C 313.58 193.12 313.22 194.43 314.17 196.00 C 313.77 196.02 312.99 196.05 312.60 196.07 C 312.80 197.76 311.31 199.06 311.68 200.79 L 310.72 201.10 C 312.39 203.32 308.50 204.51 309.67 206.89 L 308.88 207.11 C 308.18 209.40 307.70 211.97 305.72 213.56 C 306.06 213.87 306.75 214.50 307.10 214.81 C 306.43 215.10 305.08 215.66 304.41 215.94 C 304.54 216.42 304.81 217.38 304.94 217.87 L 303.64 217.67 C 303.86 220.40 301.74 222.42 300.40 224.56 C 299.61 225.83 299.21 227.28 298.81 228.71 C 296.72 230.18 295.71 232.61 294.43 234.73 C 292.77 237.08 290.92 239.31 288.92 241.39 C 288.50 242.48 288.08 243.58 287.64 244.68 C 285.46 245.75 283.35 247.37 282.80 249.86 C 280.09 250.39 279.25 253.88 276.85 255.30 C 276.81 255.71 276.74 256.55 276.71 256.96 C 276.14 256.82 275.00 256.54 274.43 256.40 C 274.56 257.06 274.83 258.38 274.96 259.04 L 273.75 258.54 C 273.40 258.98 272.70 259.84 272.35 260.28 C 271.96 260.65 271.18 261.40 270.79 261.78 C 268.11 262.35 266.85 265.12 264.36 266.02 C 262.69 267.58 260.67 268.92 259.70 271.07 C 259.30 270.95 258.52 270.70 258.12 270.58 L 257.83 271.44 C 255.95 272.19 254.42 273.58 252.60 274.45 C 251.11 275.28 249.83 276.47 248.17 276.95 C 246.95 279.18 243.97 278.58 242.67 280.74 C 240.92 281.11 239.20 281.65 237.62 282.47 C 236.27 283.15 234.93 283.83 233.61 284.55 C 231.51 285.54 229.31 286.32 227.05 286.86 L 227.00 287.97 C 223.82 287.22 221.06 289.27 218.08 289.94 C 214.61 290.67 211.67 293.30 207.96 292.92 L 207.45 292.94 C 205.93 293.53 204.55 294.26 202.73 293.77 L 202.24 293.78 C 200.16 294.76 196.66 293.45 195.71 296.02 C 192.35 295.73 188.98 295.40 185.61 295.49 C 180.96 297.10 176.01 296.41 171.23 295.92 C 169.81 295.17 168.64 295.32 167.72 296.37 C 167.69 296.09 167.63 295.52 167.60 295.24 C 164.97 294.88 160.65 297.77 159.20 294.57 C 156.51 294.67 153.82 294.99 151.13 294.99 C 150.95 294.59 150.60 293.79 150.43 293.38 C 148.44 296.38 145.45 288.82 146.73 293.98 L 146.10 294.05 L 145.89 292.84 C 144.57 293.24 143.66 292.79 143.16 291.49 C 141.71 291.61 139.73 292.83 139.19 290.70 C 136.91 290.38 134.80 289.35 132.44 289.98 C 132.02 289.49 131.17 288.51 130.75 288.02 C 127.86 287.46 125.22 285.72 122.23 285.84 L 122.24 284.75 C 120.85 284.65 119.63 284.01 118.38 283.46 C 117.78 283.27 116.57 282.90 115.96 282.72 L 116.32 281.77 C 114.87 281.74 113.60 281.06 112.30 280.53 C 111.38 279.97 110.46 279.40 109.56 278.83 C 108.46 278.48 107.37 278.15 106.28 277.82 C 103.49 274.28 98.43 273.68 95.61 270.06 C 92.48 268.73 90.28 265.94 87.28 264.46 C 81.73 258.99 76.00 253.70 70.70 247.98 C 69.36 246.44 67.36 245.22 67.05 243.04 C 66.21 242.35 65.26 241.88 64.21 241.63 C 64.97 239.04 61.86 237.94 61.11 235.76 C 58.76 232.91 56.50 229.87 55.07 226.44 C 53.83 224.52 52.55 222.62 51.48 220.60 C 50.39 218.64 49.40 216.63 48.51 214.56 C 47.71 212.50 47.30 210.20 45.40 208.81 C 45.65 205.67 43.56 203.09 43.18 200.06 L 42.14 200.00 C 40.64 196.32 41.35 192.09 39.39 188.58 C 39.70 187.24 39.23 186.28 37.98 185.68 C 38.13 184.95 38.42 183.51 38.56 182.78 L 37.10 182.64 C 37.34 182.36 37.82 181.82 38.05 181.55 C 36.82 179.70 37.94 177.21 36.50 175.42 C 35.54 173.77 37.26 171.55 35.81 170.01 C 35.12 161.15 35.55 152.12 35.56 143.15 C 35.73 140.97 35.92 138.79 35.72 136.60 L 36.71 136.50 C 35.95 134.64 35.72 132.77 37.65 131.59 L 36.02 131.77 C 37.71 130.88 37.45 128.97 37.51 127.36 C 38.93 125.38 37.04 122.48 39.31 120.98 C 39.23 120.23 39.07 118.74 38.99 118.00 L 40.28 118.00 C 40.18 116.32 39.22 114.02 41.32 113.19 C 41.20 111.32 42.79 109.89 42.27 107.99 L 43.24 108.33 C 43.74 104.49 45.69 100.99 46.32 97.15 L 47.32 97.19 C 47.21 94.70 49.63 92.97 49.32 90.43 C 50.36 89.25 51.33 88.00 52.10 86.63 C 52.46 85.50 52.83 84.38 53.18 83.25 C 53.88 82.64 54.57 82.02 55.25 81.39 C 55.69 79.81 57.09 78.75 57.45 77.13 L 58.35 77.12 C 58.34 76.49 58.33 75.25 58.32 74.62 C 60.13 74.08 61.00 72.41 61.89 70.90 C 63.33 69.19 64.64 67.38 65.96 65.58 C 66.73 63.63 68.66 62.49 69.53 60.61 C 72.25 58.75 75.07 56.34 76.27 53.22 C 78.59 53.09 78.50 50.14 80.41 49.34 C 82.74 48.46 82.91 45.05 85.79 45.06 C 86.97 43.80 88.08 42.48 89.19 41.16 C 90.44 41.15 91.33 40.59 91.86 39.49 C 92.50 38.09 94.24 38.10 95.40 37.34 C 98.13 36.33 100.01 33.65 102.95 33.15 C 103.91 31.42 105.99 30.95 107.60 30.04 C 108.59 29.08 109.79 28.40 111.12 28.01 C 112.53 27.58 113.15 25.59 114.91 26.13 L 115.02 25.13 C 117.40 25.24 119.19 23.15 121.55 23.42 C 122.16 22.62 122.76 21.82 123.35 21.00 C 125.89 21.75 128.17 20.51 130.48 19.62 C 131.72 18.92 132.62 17.82 133.57 16.79 C 133.78 17.28 134.20 18.25 134.41 18.74 C 135.41 16.05 138.58 18.29 140.10 16.05 C 140.66 16.15 141.78 16.35 142.33 16.45 C 142.52 14.47 144.30 15.05 145.67 15.13 C 146.06 13.18 148.37 14.53 149.70 14.16 C 150.14 12.95 151.10 12.63 152.57 13.20 C 154.80 12.33 158.22 14.93 159.30 12.04 M 173.38 22.03 L 172.70 22.91 C 168.89 23.20 165.05 22.83 161.24 23.11 C 159.32 24.72 156.66 23.75 154.39 24.04 C 153.38 25.74 151.01 24.61 149.50 25.56 C 147.95 26.12 145.77 25.41 144.67 26.89 C 142.49 26.87 140.42 27.49 138.40 28.24 C 137.31 29.42 135.52 28.91 134.12 29.24 C 132.51 28.39 129.47 29.26 128.86 30.97 C 128.43 31.05 127.57 31.20 127.14 31.28 C 126.36 32.07 125.68 33.10 124.45 33.11 C 123.54 33.67 122.62 34.21 121.71 34.75 C 121.20 34.99 120.17 35.48 119.66 35.72 C 116.31 36.81 113.12 38.43 110.50 40.80 C 109.95 40.88 108.86 41.04 108.32 41.13 C 107.90 41.52 107.08 42.32 106.66 42.71 C 106.51 42.86 106.20 43.15 106.04 43.30 C 105.77 43.47 105.22 43.83 104.95 44.00 C 104.78 44.08 104.45 44.25 104.29 44.33 C 101.38 45.09 100.25 48.55 97.39 49.14 C 96.35 49.81 95.25 50.45 94.56 51.51 C 93.16 51.67 92.58 52.43 92.84 53.78 C 91.03 54.12 89.98 55.84 88.20 56.27 C 88.11 59.65 82.66 59.17 82.85 62.80 C 80.54 63.04 79.96 65.54 78.10 66.51 C 78.07 67.08 78.01 68.21 77.98 68.78 C 76.17 68.49 74.87 70.05 74.80 71.75 C 73.89 72.61 72.92 73.47 72.81 74.81 C 70.68 74.92 70.80 77.39 69.95 78.84 C 69.52 79.07 68.67 79.54 68.24 79.78 C 67.91 82.58 65.11 84.26 64.80 87.09 C 64.37 86.98 63.50 86.78 63.06 86.68 C 63.04 87.44 62.99 88.96 62.97 89.72 C 60.77 90.36 60.72 92.97 59.73 94.67 C 58.92 96.33 58.42 98.15 57.16 99.55 C 57.09 100.81 56.85 102.03 55.76 102.81 C 54.46 103.79 55.20 105.61 54.98 106.98 L 54.08 107.06 C 54.26 108.34 53.99 109.45 53.26 110.38 C 52.56 111.72 51.98 113.12 51.80 114.64 C 50.57 115.64 51.15 117.33 50.91 118.68 C 49.37 119.41 50.22 121.35 49.91 122.66 C 49.05 123.41 48.70 124.41 48.85 125.67 C 46.69 127.27 49.38 130.97 47.03 132.40 C 46.55 134.63 48.06 137.83 46.04 139.39 C 46.06 149.13 45.83 158.89 46.12 168.62 L 46.96 169.36 C 47.44 171.59 45.99 174.72 47.94 176.34 C 48.32 177.93 47.17 180.35 48.92 181.32 C 49.17 182.64 48.51 184.38 49.77 185.32 C 50.04 186.08 50.30 186.84 50.55 187.60 C 49.92 189.07 51.11 191.00 51.83 192.35 C 51.75 193.54 52.09 194.54 52.85 195.33 C 52.76 196.52 53.09 197.51 53.84 198.31 C 53.82 199.46 54.15 200.47 54.83 201.33 C 54.80 202.46 55.11 203.46 55.73 204.34 C 56.29 205.72 56.86 207.10 57.69 208.35 C 57.96 208.85 58.51 209.85 58.79 210.35 C 58.94 211.88 59.55 213.28 60.30 214.61 C 61.10 215.62 60.84 217.57 62.25 217.95 L 61.78 218.72 C 62.08 218.98 62.68 219.48 62.98 219.73 L 62.52 221.58 L 64.01 221.11 C 63.60 222.75 64.15 223.47 65.65 223.26 L 66.03 224.42 C 66.08 224.56 66.17 224.85 66.22 225.00 C 66.43 225.14 66.87 225.42 67.09 225.57 C 67.16 226.08 67.32 227.10 67.39 227.62 L 68.27 227.90 C 68.32 228.07 68.42 228.40 68.47 228.56 C 68.86 229.83 69.26 231.11 69.66 232.39 L 69.42 230.39 C 69.83 230.23 70.65 229.91 71.07 229.74 C 70.99 230.65 70.83 232.48 70.75 233.39 C 71.31 233.28 72.43 233.07 72.98 232.96 C 72.99 233.66 72.99 235.06 73.00 235.76 C 74.62 236.51 76.51 237.26 75.72 239.53 C 76.25 239.38 77.32 239.07 77.85 238.92 C 77.68 240.42 78.81 241.29 79.68 242.27 C 81.73 244.24 83.65 246.34 85.72 248.28 C 87.37 249.78 88.93 251.37 90.45 253.01 L 91.82 251.82 C 91.43 253.66 93.14 254.76 93.93 256.16 C 94.83 256.75 95.67 257.40 96.48 258.11 C 96.78 258.08 97.39 258.03 97.69 258.00 C 100.02 260.89 103.11 263.01 106.37 264.72 C 107.71 264.94 108.52 266.01 109.39 266.94 C 110.92 267.19 112.34 267.93 113.47 268.99 C 113.83 268.93 114.57 268.80 114.93 268.74 L 115.10 269.79 C 116.65 270.14 117.99 270.98 119.37 271.74 C 120.72 272.36 122.07 273.00 123.40 273.68 C 124.75 274.31 126.10 274.97 127.37 275.77 C 129.72 276.88 132.42 276.92 134.68 278.26 C 135.79 279.05 137.27 279.02 138.40 279.80 C 139.64 279.69 140.64 280.06 141.39 280.91 C 142.71 281.21 144.61 280.39 145.38 281.89 C 147.41 281.84 149.33 282.40 151.25 283.00 C 151.30 284.57 154.09 284.51 155.15 283.89 C 155.38 285.84 158.85 285.48 160.03 284.46 L 161.17 284.90 L 161.04 285.77 C 165.21 285.72 169.38 285.97 173.54 285.73 C 175.82 286.30 178.26 285.87 180.61 285.97 L 181.30 285.09 C 185.85 284.56 190.62 285.82 195.02 284.13 C 196.80 283.81 198.83 284.28 200.36 283.07 C 201.78 283.01 203.20 282.98 204.63 282.95 C 205.29 281.30 207.31 282.23 208.63 281.92 C 210.68 280.37 213.98 280.67 216.56 279.94 C 216.97 279.68 217.78 279.18 218.18 278.92 C 219.64 279.97 220.54 279.65 220.89 277.96 C 221.30 277.97 222.13 278.01 222.55 278.02 C 223.86 276.69 225.87 276.60 227.52 275.86 C 232.19 272.69 237.96 271.64 242.32 268.04 C 242.60 268.05 243.17 268.06 243.46 268.07 C 245.15 266.33 247.77 266.10 249.42 264.29 C 252.39 263.25 253.66 259.85 256.58 258.65 C 259.35 257.60 261.21 255.22 263.25 253.18 C 263.59 253.09 264.29 252.92 264.64 252.84 C 266.93 249.78 271.08 247.86 272.16 244.12 C 274.04 244.65 274.62 242.60 275.67 241.55 C 276.84 240.10 279.03 239.38 279.23 237.31 C 279.46 236.73 279.93 235.58 280.16 235.00 C 280.56 235.00 281.37 235.00 281.77 234.99 C 282.18 233.69 282.69 232.43 283.17 231.15 C 285.25 231.40 285.15 229.47 285.03 227.97 C 285.57 228.01 286.63 228.09 287.16 228.13 C 287.10 227.33 287.00 225.74 286.95 224.94 C 287.54 225.08 288.72 225.35 289.31 225.49 C 289.22 224.69 289.03 223.09 288.93 222.29 C 289.84 221.36 290.76 220.41 291.99 219.90 C 291.76 218.62 292.00 217.53 292.73 216.60 C 293.95 214.20 295.12 211.76 296.25 209.31 C 296.73 208.41 297.23 207.52 297.75 206.64 C 298.65 205.05 298.78 203.14 299.75 201.61 C 300.41 199.92 300.57 197.93 301.90 196.59 C 301.94 196.02 302.02 194.87 302.05 194.30 C 302.97 193.61 303.34 192.62 303.16 191.32 C 304.88 188.81 304.00 185.04 305.87 182.60 C 305.74 180.33 306.82 178.27 306.97 176.06 C 307.32 174.61 306.24 172.44 307.95 171.61 C 308.02 168.02 307.64 164.35 308.95 160.92 C 308.95 155.92 309.22 150.90 308.75 145.92 C 308.60 145.75 308.32 145.42 308.18 145.26 C 307.80 142.20 308.18 139.11 307.77 136.06 C 308.51 134.55 308.37 132.40 307.38 131.04 L 307.99 130.09 C 305.31 129.91 306.13 127.21 305.92 125.38 C 304.20 124.70 305.30 122.68 305.19 121.37 C 303.31 120.87 304.25 118.73 303.90 117.38 C 302.42 116.64 303.19 114.81 302.92 113.53 C 302.35 112.59 301.78 111.64 301.22 110.70 C 300.77 109.25 300.28 107.82 299.77 106.40 C 298.81 105.35 299.17 103.75 298.28 102.67 C 297.74 101.58 297.21 100.49 296.71 99.38 C 294.96 95.75 292.62 92.27 291.88 88.26 C 290.92 87.35 289.94 86.46 288.97 85.58 C 289.00 84.93 289.07 83.65 289.10 83.00 C 288.56 83.00 287.49 83.00 286.96 83.00 C 287.00 82.25 287.08 80.75 287.12 80.01 C 286.63 80.00 285.64 80.00 285.15 80.00 C 285.00 78.57 284.82 77.09 283.14 76.77 C 283.21 74.78 281.93 73.40 280.52 72.18 C 279.92 70.59 279.16 69.10 277.45 68.54 C 276.28 66.50 274.67 64.20 272.19 63.82 C 271.88 62.49 271.16 61.41 270.01 60.57 L 269.00 61.93 C 269.27 61.36 269.83 60.23 270.10 59.67 C 265.18 56.49 261.42 51.71 256.37 48.71 C 255.02 47.20 253.34 46.16 251.40 45.61 C 249.13 43.93 247.28 41.57 244.47 40.72 C 244.29 40.55 243.92 40.22 243.74 40.05 C 243.58 39.91 243.25 39.63 243.09 39.49 C 242.56 37.80 241.44 37.29 239.73 37.95 C 239.60 37.87 239.34 37.71 239.21 37.64 C 238.54 37.27 237.20 36.54 236.53 36.17 C 236.04 35.93 235.05 35.43 234.56 35.19 C 232.47 34.31 230.30 33.49 228.51 32.06 C 227.99 32.02 226.96 31.95 226.45 31.91 C 225.30 30.83 223.46 31.26 222.42 30.01 C 221.92 29.98 220.92 29.93 220.42 29.91 C 219.21 29.12 217.69 29.00 216.52 28.13 C 215.36 28.01 214.23 27.72 213.25 27.09 C 211.16 25.90 208.74 25.54 206.45 24.92 L 206.32 24.92 C 203.87 24.28 201.18 23.24 198.65 23.75 L 197.82 23.96 C 197.21 22.48 196.24 22.34 194.90 23.55 C 190.57 22.32 185.80 23.34 181.30 22.99 C 179.58 20.82 175.87 22.54 173.38 22.03 Z" />
<path fill="#fece83" opacity="1.00" d=" M 207.00 60.07 C 207.53 60.25 208.59 60.59 209.12 60.77 C 208.64 60.80 207.66 60.86 207.17 60.89 L 207.00 60.07 Z" />
<path fill="#fece83" opacity="1.00" d=" M 124.30 68.40 L 124.76 68.34 C 124.57 68.44 124.19 68.64 124.00 68.75 L 124.30 68.40 Z" />
<path fill="#fece83" opacity="1.00" d=" M 226.45 122.41 C 227.44 121.48 229.50 119.77 230.23 119.85 C 232.81 117.17 234.09 121.48 235.40 123.13 C 235.05 123.41 234.35 123.99 234.00 124.27 C 234.00 124.86 234.00 126.04 234.00 126.63 C 235.85 129.05 238.78 129.68 241.57 130.42 C 244.67 132.21 248.26 132.76 251.52 134.16 C 253.50 133.02 254.14 130.94 255.07 129.01 C 256.59 129.13 258.11 129.19 259.64 129.22 C 260.33 129.93 261.03 130.64 261.72 131.35 C 261.68 132.46 261.70 133.57 261.80 134.68 C 260.95 135.55 260.14 136.46 259.22 137.24 C 257.00 136.77 254.38 135.88 252.83 138.18 L 252.50 138.44 L 252.67 138.71 C 251.51 138.54 250.18 137.65 249.29 138.89 L 249.17 137.79 C 247.28 138.35 245.72 137.76 244.64 136.17 C 242.69 136.34 241.26 134.65 239.31 134.84 C 238.49 133.30 236.56 134.30 235.20 134.08 C 234.53 136.41 233.28 138.78 234.54 141.17 C 232.91 145.60 234.16 150.34 233.64 154.91 C 233.48 158.00 234.81 161.26 233.18 164.17 C 233.61 165.90 234.97 167.72 233.62 169.47 C 234.74 170.40 235.84 171.51 237.43 171.03 C 237.91 171.52 238.88 172.48 239.36 172.97 C 239.91 173.01 241.00 173.10 241.54 173.14 C 242.36 174.90 244.27 173.93 245.70 174.07 C 248.77 174.28 252.37 174.68 253.74 177.88 C 251.98 178.07 249.88 177.47 248.52 178.92 C 246.66 177.99 244.59 179.60 242.77 178.60 C 240.66 177.65 238.31 177.85 236.06 177.80 C 229.61 177.78 223.16 177.52 216.72 177.82 C 214.68 177.93 212.73 177.24 210.76 176.86 C 210.02 179.63 207.51 176.77 208.01 175.35 C 208.84 174.71 210.51 173.43 211.34 172.80 L 212.57 174.04 C 213.05 172.49 216.06 172.41 216.45 174.09 C 218.05 174.09 219.33 173.18 220.45 172.13 C 221.45 172.13 222.46 172.12 223.47 172.09 C 225.07 170.57 227.40 169.74 227.80 167.31 C 228.38 161.46 227.99 155.57 228.17 149.71 C 228.37 149.32 228.76 148.55 228.96 148.16 C 227.42 146.67 229.18 144.91 228.95 143.22 C 229.09 139.77 229.02 136.33 229.00 132.88 C 226.65 132.65 224.65 133.78 222.47 134.29 C 218.30 135.50 213.96 138.05 209.57 136.47 L 208.94 135.99 C 207.38 137.67 205.04 135.84 203.20 136.89 C 201.92 136.38 202.67 134.52 202.30 133.47 C 202.04 132.93 201.53 131.87 201.28 131.34 C 201.89 130.22 202.42 129.05 203.28 128.09 C 205.05 127.96 206.83 127.99 208.61 128.00 C 208.69 129.45 209.73 130.38 210.73 131.29 C 211.96 133.88 215.44 132.14 217.39 131.22 C 219.16 129.77 221.75 130.80 223.38 129.21 C 225.50 129.30 227.06 127.56 229.27 127.95 C 231.48 124.24 225.51 125.18 226.45 122.41 Z" />
<path fill="#fece83" opacity="1.00" d=" M 192.95 159.69 C 192.96 159.29 192.98 158.49 192.99 158.09 L 193.95 158.17 C 195.75 158.34 197.56 158.46 199.38 158.52 C 203.77 158.12 208.22 157.80 212.60 158.56 C 214.12 158.83 215.66 159.06 217.20 159.24 C 217.65 159.25 218.55 159.26 219.01 159.27 C 219.00 159.62 219.00 160.31 219.00 160.66 C 218.40 160.91 217.22 161.42 216.63 161.67 C 214.28 162.27 211.95 162.97 209.66 163.74 C 206.65 163.47 203.29 164.73 200.71 162.63 C 199.68 166.16 198.70 161.81 197.03 161.97 C 195.59 161.35 194.56 159.99 192.95 159.69 Z" />
<path fill="#fece83" opacity="1.00" d=" M 242.01 158.66 L 242.85 159.58 C 244.07 162.26 246.84 160.42 248.54 159.57 C 250.76 159.23 253.00 159.23 255.24 159.31 C 258.03 160.38 261.09 159.86 264.01 160.15 C 265.42 160.22 266.84 160.27 268.27 160.32 L 269.27 160.35 C 268.67 162.39 266.13 162.59 264.56 163.65 C 260.34 165.40 255.76 164.69 251.33 164.88 C 250.50 163.18 248.45 164.03 247.01 163.94 L 246.92 162.87 C 244.64 163.80 244.20 160.15 241.96 160.96 C 241.97 160.39 242.00 159.24 242.01 158.66 Z" />
</g>
<g id="#938979fa">
<path fill="#938979" opacity="0.98" d=" M 160.11 43.69 C 160.28 43.56 160.61 43.29 160.78 43.16 C 160.61 43.29 160.28 43.56 160.11 43.69 Z" />
<path fill="#938979" opacity="0.98" d=" M 153.11 44.68 C 153.28 44.55 153.61 44.31 153.78 44.18 C 153.61 44.31 153.28 44.55 153.11 44.68 Z" />
<path fill="#938979" opacity="0.98" d=" M 148.11 45.70 C 148.28 45.59 148.62 45.35 148.79 45.24 C 148.62 45.35 148.28 45.59 148.11 45.70 Z" />
<path fill="#938979" opacity="0.98" d=" M 218.35 51.38 C 218.45 51.42 218.66 51.49 218.77 51.53 C 218.66 51.49 218.45 51.42 218.35 51.38 Z" />
<path fill="#938979" opacity="0.98" d=" M 222.46 53.45 C 222.63 53.58 222.95 53.85 223.11 53.99 C 222.95 53.85 222.63 53.58 222.46 53.45 Z" />
<path fill="#938979" opacity="0.98" d=" M 223.11 53.99 C 223.31 54.18 223.70 54.56 223.89 54.76 C 223.70 54.56 223.31 54.18 223.11 53.99 Z" />
<path fill="#938979" opacity="0.98" d=" M 122.20 55.63 C 122.33 55.57 122.59 55.45 122.72 55.38 L 122.47 55.49 L 122.20 55.63 Z" />
<path fill="#938979" opacity="0.98" d=" M 223.89 54.76 C 224.38 54.86 225.36 55.07 225.85 55.18 L 225.92 56.02 C 225.42 55.71 224.40 55.07 223.89 54.76 Z" />
<path fill="#938979" opacity="0.98" d=" M 227.26 56.13 C 227.42 56.26 227.74 56.50 227.90 56.63 C 227.74 56.50 227.42 56.26 227.26 56.13 Z" />
<path fill="#938979" opacity="0.98" d=" M 121.98 58.29 C 122.43 57.93 123.31 57.20 123.75 56.84 C 123.31 57.20 122.43 57.93 121.98 58.29 Z" />
<path fill="#938979" opacity="0.98" d=" M 225.34 57.26 C 225.45 57.31 225.66 57.43 225.76 57.49 C 225.66 57.43 225.45 57.31 225.34 57.26 Z" />
<path fill="#938979" opacity="0.98" d=" M 118.07 60.27 C 118.13 58.64 119.69 57.90 121.14 58.28 C 120.76 59.66 119.50 60.50 118.07 60.27 Z" />
<path fill="#938979" opacity="0.98" d=" M 233.41 59.46 C 233.58 59.61 233.92 59.90 234.09 60.05 C 233.92 59.90 233.58 59.61 233.41 59.46 Z" />
<path fill="#938979" opacity="0.98" d=" M 234.09 60.05 C 234.33 60.27 234.82 60.71 235.06 60.93 C 234.82 60.71 234.33 60.27 234.09 60.05 Z" />
<path fill="#938979" opacity="0.98" d=" M 235.06 60.93 C 235.26 61.13 235.68 61.54 235.89 61.74 C 235.68 61.54 235.26 61.13 235.06 60.93 Z" />
<path fill="#938979" opacity="0.98" d=" M 235.89 61.74 C 236.39 61.84 237.38 62.03 237.87 62.13 L 237.96 62.98 C 237.44 62.67 236.41 62.05 235.89 61.74 Z" />
<path fill="#938979" opacity="0.98" d=" M 108.76 66.30 C 109.00 64.93 109.82 64.32 111.22 64.47 C 110.99 65.83 110.17 66.44 108.76 66.30 Z" />
<path fill="#938979" opacity="0.98" d=" M 108.20 66.82 C 108.34 66.69 108.62 66.43 108.76 66.30 C 108.62 66.43 108.34 66.69 108.20 66.82 Z" />
<path fill="#938979" opacity="0.98" d=" M 105.90 67.52 C 106.47 67.34 107.62 66.99 108.20 66.82 C 106.84 68.67 105.06 70.12 103.17 71.40 C 104.13 70.14 105.03 68.84 105.90 67.52 Z" />
<path fill="#938979" opacity="0.98" d=" M 180.22 73.16 C 180.38 73.30 180.72 73.58 180.89 73.71 C 180.72 73.58 180.38 73.30 180.22 73.16 Z" />
<path fill="#938979" opacity="0.98" d=" M 159.12 74.70 C 159.29 74.57 159.62 74.29 159.79 74.16 C 159.62 74.29 159.29 74.57 159.12 74.70 Z" />
<path fill="#938979" opacity="0.98" d=" M 95.34 75.76 C 95.40 75.69 95.54 75.55 95.61 75.48 C 95.54 75.55 95.40 75.69 95.34 75.76 Z" />
<path fill="#938979" opacity="0.98" d=" M 154.13 75.68 C 154.30 75.56 154.63 75.32 154.79 75.20 C 154.63 75.32 154.30 75.56 154.13 75.68 Z" />
<path fill="#938979" opacity="0.98" d=" M 194.22 75.20 C 194.39 75.32 194.71 75.55 194.88 75.67 C 194.71 75.55 194.39 75.32 194.22 75.20 Z" />
<path fill="#938979" opacity="0.98" d=" M 110.95 78.77 C 111.62 77.65 112.22 75.96 113.82 76.03 C 113.95 77.20 113.51 78.18 112.51 78.95 C 112.12 78.91 111.34 78.82 110.95 78.77 Z" />
<path fill="#938979" opacity="0.98" d=" M 108.80 77.82 C 108.96 77.70 109.27 77.46 109.43 77.35 C 109.27 77.46 108.96 77.70 108.80 77.82 Z" />
<path fill="#938979" opacity="0.98" d=" M 107.16 79.02 C 107.36 78.86 107.75 78.56 107.95 78.41 C 107.75 78.56 107.36 78.86 107.16 79.02 Z" />
<path fill="#938979" opacity="0.98" d=" M 146.12 78.70 C 146.29 78.60 146.63 78.39 146.80 78.28 C 146.63 78.39 146.29 78.60 146.12 78.70 Z" />
<path fill="#938979" opacity="0.98" d=" M 202.27 78.16 C 202.41 78.27 202.69 78.48 202.83 78.59 C 202.69 78.48 202.41 78.27 202.27 78.16 Z" />
<path fill="#938979" opacity="0.98" d=" M 106.63 79.53 C 106.76 79.40 107.03 79.14 107.16 79.02 C 107.03 79.14 106.76 79.40 106.63 79.53 Z" />
<path fill="#938979" opacity="0.98" d=" M 109.15 80.18 C 109.31 80.03 109.61 79.71 109.77 79.56 C 109.61 79.71 109.31 80.03 109.15 80.18 Z" />
<path fill="#938979" opacity="0.98" d=" M 143.16 79.60 C 143.30 79.50 143.58 79.31 143.71 79.22 C 143.58 79.31 143.30 79.50 143.16 79.60 Z" />
<path fill="#938979" opacity="0.98" d=" M 204.17 79.35 C 204.35 79.44 204.71 79.62 204.89 79.71 L 204.47 79.65 L 204.17 79.35 Z" />
<path fill="#938979" opacity="0.98" d=" M 108.47 80.59 C 108.64 80.49 108.98 80.29 109.15 80.18 C 108.98 80.29 108.64 80.49 108.47 80.59 Z" />
<path fill="#938979" opacity="0.98" d=" M 141.12 80.72 C 141.30 80.63 141.66 80.45 141.84 80.36 L 141.54 80.66 L 141.12 80.72 Z" />
<path fill="#938979" opacity="0.98" d=" M 207.26 80.17 C 207.42 80.30 207.74 80.55 207.90 80.68 C 207.74 80.55 207.42 80.30 207.26 80.17 Z" />
<path fill="#938979" opacity="0.98" d=" M 240.13 80.54 C 240.21 80.63 240.37 80.79 240.45 80.87 C 240.37 80.79 240.21 80.63 240.13 80.54 Z" />
<path fill="#938979" opacity="0.98" d=" M 102.53 86.53 C 104.36 84.41 106.26 82.33 108.47 80.59 C 106.81 82.84 105.17 85.34 102.53 86.53 Z" />
<path fill="#938979" opacity="0.98" d=" M 138.19 81.58 C 138.31 81.47 138.56 81.27 138.68 81.17 C 138.56 81.27 138.31 81.47 138.19 81.58 Z" />
<path fill="#938979" opacity="0.98" d=" M 210.23 81.25 C 210.40 81.35 210.73 81.57 210.90 81.68 C 210.73 81.57 210.40 81.35 210.23 81.25 Z" />
<path fill="#938979" opacity="0.98" d=" M 101.09 85.09 C 101.21 84.98 101.43 84.75 101.54 84.64 C 101.43 84.75 101.21 84.98 101.09 85.09 Z" />
<path fill="#938979" opacity="0.98" d=" M 100.67 85.59 C 100.78 85.46 100.99 85.22 101.09 85.09 C 100.99 85.22 100.78 85.46 100.67 85.59 Z" />
<path fill="#938979" opacity="0.98" d=" M 216.16 85.37 C 216.34 85.46 216.71 85.64 216.89 85.73 L 216.47 85.68 L 216.16 85.37 Z" />
<path fill="#938979" opacity="0.98" d=" M 101.99 87.09 C 102.12 86.95 102.39 86.67 102.53 86.53 C 102.39 86.67 102.12 86.95 101.99 87.09 Z" />
<path fill="#938979" opacity="0.98" d=" M 101.19 87.86 C 101.39 87.67 101.79 87.28 101.99 87.09 C 101.79 87.28 101.39 87.67 101.19 87.86 Z" />
<path fill="#938979" opacity="0.98" d=" M 222.19 89.37 C 222.35 89.45 222.68 89.61 222.84 89.69 C 222.68 89.61 222.35 89.45 222.19 89.37 Z" />
<path fill="#938979" opacity="0.98" d=" M 97.53 92.84 C 97.61 92.76 97.77 92.61 97.85 92.53 C 97.77 92.61 97.61 92.76 97.53 92.84 Z" />
<path fill="#938979" opacity="0.98" d=" M 229.26 95.47 C 229.45 95.59 229.83 95.82 230.02 95.94 C 229.83 95.82 229.45 95.59 229.26 95.47 Z" />
<path fill="#938979" opacity="0.98" d=" M 79.34 96.80 C 79.43 96.63 79.61 96.27 79.70 96.09 L 79.65 96.50 L 79.34 96.80 Z" />
<path fill="#938979" opacity="0.98" d=" M 214.47 96.65 C 214.60 96.75 214.86 96.95 214.99 97.05 C 214.86 96.95 214.60 96.75 214.47 96.65 Z" />
<path fill="#938979" opacity="0.98" d=" M 230.02 95.94 C 231.35 96.57 231.55 97.57 230.64 98.94 L 230.03 98.89 C 230.02 98.15 230.02 96.68 230.02 95.94 Z" />
<path fill="#938979" opacity="0.98" d=" M 211.08 97.05 C 211.29 97.21 211.70 97.55 211.91 97.72 C 211.70 97.55 211.29 97.21 211.08 97.05 Z" />
<path fill="#938979" opacity="0.98" d=" M 214.99 97.05 C 215.18 97.21 215.57 97.53 215.76 97.70 C 215.57 97.53 215.18 97.21 214.99 97.05 Z" />
<path fill="#938979" opacity="0.98" d=" M 228.30 97.30 C 228.34 97.34 228.41 97.42 228.45 97.45 L 228.12 97.59 L 228.30 97.30 Z" />
<path fill="#938979" opacity="0.98" d=" M 78.28 98.60 C 78.33 98.51 78.43 98.33 78.48 98.24 C 78.43 98.33 78.33 98.51 78.28 98.60 Z" />
<path fill="#938979" opacity="0.98" d=" M 211.91 97.72 C 212.48 98.03 213.62 98.65 214.19 98.96 C 213.69 98.88 212.69 98.70 212.19 98.61 L 211.91 97.72 Z" />
<path fill="#938979" opacity="0.98" d=" M 215.76 97.70 C 216.05 97.88 216.62 98.25 216.90 98.43 C 216.62 98.25 216.05 97.88 215.76 97.70 Z" />
<path fill="#938979" opacity="0.98" d=" M 214.19 98.96 C 214.30 99.08 214.50 99.30 214.61 99.42 C 214.50 99.30 214.30 99.08 214.19 98.96 Z" />
<path fill="#938979" opacity="0.98" d=" M 216.90 98.43 C 218.70 99.29 220.57 100.39 221.06 102.48 C 220.50 102.43 219.38 102.32 218.82 102.27 C 218.02 101.07 217.42 99.76 216.90 98.43 Z" />
<path fill="#938979" opacity="0.98" d=" M 227.78 101.16 C 227.95 99.81 228.70 99.05 230.03 98.89 C 230.02 100.37 229.27 101.12 227.78 101.16 Z" />
<path fill="#938979" opacity="0.98" d=" M 77.28 100.62 C 77.33 100.52 77.42 100.33 77.47 100.24 C 77.42 100.33 77.33 100.52 77.28 100.62 Z" />
<path fill="#938979" opacity="0.98" d=" M 224.94 100.94 C 225.06 100.82 225.30 100.57 225.42 100.45 C 225.30 100.57 225.06 100.82 224.94 100.94 Z" />
<path fill="#938979" opacity="0.98" d=" M 114.03 102.06 C 114.15 101.85 114.39 101.43 114.51 101.23 C 114.39 101.43 114.15 101.85 114.03 102.06 Z" />
<path fill="#938979" opacity="0.98" d=" M 216.27 101.06 L 216.63 101.34 L 216.73 101.79 C 216.61 101.60 216.39 101.24 216.27 101.06 Z" />
<path fill="#938979" opacity="0.98" d=" M 224.43 101.39 C 224.56 101.27 224.81 101.05 224.94 100.94 C 224.81 101.05 224.56 101.27 224.43 101.39 Z" />
<path fill="#938979" opacity="0.98" d=" M 227.10 101.31 L 227.78 101.16 C 227.60 101.38 227.22 101.82 227.04 102.03 L 227.10 101.31 Z" />
<path fill="#938979" opacity="0.98" d=" M 76.32 102.61 C 76.37 102.51 76.46 102.32 76.50 102.23 C 76.46 102.32 76.37 102.51 76.32 102.61 Z" />
<path fill="#938979" opacity="0.98" d=" M 113.21 102.74 C 113.41 102.57 113.83 102.23 114.03 102.06 C 113.83 102.23 113.41 102.57 113.21 102.74 Z" />
<path fill="#938979" opacity="0.98" d=" M 226.33 102.13 L 227.04 102.03 C 226.83 102.23 226.43 102.62 226.23 102.81 L 226.33 102.13 Z" />
<path fill="#938979" opacity="0.98" d=" M 110.27 106.42 C 109.59 104.79 111.67 102.85 113.21 102.74 C 113.00 104.44 111.64 105.57 110.27 106.42 Z" />
<path fill="#938979" opacity="0.98" d=" M 222.65 104.59 C 223.71 103.78 224.88 103.04 226.23 102.81 C 226.35 104.47 223.91 105.82 222.65 104.59 Z" />
<path fill="#938979" opacity="0.98" d=" M 75.33 104.67 C 75.39 104.55 75.50 104.32 75.56 104.20 C 75.50 104.32 75.39 104.55 75.33 104.67 Z" />
<path fill="#938979" opacity="0.98" d=" M 219.09 104.01 C 220.38 103.70 221.41 104.00 222.17 104.93 C 221.40 104.86 219.86 104.72 219.09 104.65 L 219.09 104.01 Z" />
<path fill="#938979" opacity="0.98" d=" M 72.30 110.76 C 72.38 110.61 72.55 110.30 72.63 110.14 C 72.55 110.30 72.38 110.61 72.30 110.76 Z" />
<path fill="#938979" opacity="0.98" d=" M 106.09 112.15 C 105.91 110.63 106.57 109.95 108.05 110.12 L 108.11 110.83 C 107.61 111.16 106.59 111.82 106.09 112.15 Z" />
<path fill="#938979" opacity="0.98" d=" M 105.33 114.82 C 105.43 114.64 105.61 114.29 105.71 114.11 L 105.64 114.52 L 105.33 114.82 Z" />
<path fill="#938979" opacity="0.98" d=" M 104.29 116.73 C 104.37 116.61 104.52 116.36 104.60 116.24 C 104.52 116.36 104.37 116.61 104.29 116.73 Z" />
<path fill="#938979" opacity="0.98" d=" M 70.27 117.77 C 70.37 117.61 70.56 117.27 70.65 117.10 C 70.56 117.27 70.37 117.61 70.27 117.77 Z" />
<path fill="#938979" opacity="0.98" d=" M 69.25 120.75 C 69.35 120.59 69.56 120.27 69.66 120.11 C 69.56 120.27 69.35 120.59 69.25 120.75 Z" />
<path fill="#938979" opacity="0.98" d=" M 101.24 121.77 C 101.35 121.61 101.57 121.28 101.68 121.12 C 101.57 121.28 101.35 121.61 101.24 121.77 Z" />
<path fill="#938979" opacity="0.98" d=" M 68.17 124.77 C 68.29 124.60 68.54 124.28 68.66 124.11 C 68.54 124.28 68.29 124.60 68.17 124.77 Z" />
<path fill="#938979" opacity="0.98" d=" M 100.23 124.77 C 100.34 124.61 100.57 124.28 100.68 124.12 C 100.57 124.28 100.34 124.61 100.23 124.77 Z" />
<path fill="#938979" opacity="0.98" d=" M 99.22 127.78 C 99.33 127.62 99.56 127.29 99.67 127.13 C 99.56 127.29 99.33 127.62 99.22 127.78 Z" />
<path fill="#938979" opacity="0.98" d=" M 98.16 131.78 C 98.29 131.61 98.55 131.28 98.68 131.11 C 98.55 131.28 98.29 131.61 98.16 131.78 Z" />
<path fill="#938979" opacity="0.98" d=" M 203.20 136.89 C 205.04 135.84 207.38 137.67 208.94 135.99 L 209.57 136.47 C 211.26 138.03 210.83 140.42 211.72 142.35 C 212.21 144.10 212.91 145.79 213.33 147.56 C 214.01 148.75 213.94 150.24 214.79 151.36 C 214.83 152.47 215.16 153.46 215.78 154.35 C 216.18 155.99 216.67 157.62 217.20 159.24 C 215.66 159.06 214.12 158.83 212.60 158.56 C 213.66 156.98 213.21 155.22 212.77 153.52 C 212.36 152.54 211.98 151.55 211.62 150.56 C 211.28 149.56 210.96 148.55 210.65 147.55 C 210.30 146.55 209.97 145.54 209.65 144.54 C 209.41 143.91 208.92 142.65 208.68 142.02 L 206.83 142.00 C 207.05 140.93 209.04 137.09 206.62 137.59 C 205.02 137.79 204.78 139.52 204.51 140.79 C 202.71 146.64 198.63 152.17 199.38 158.52 C 197.56 158.46 195.75 158.34 193.95 158.17 C 194.58 158.12 195.86 158.01 196.49 157.96 C 196.12 156.34 196.35 154.46 198.28 154.06 C 198.30 152.20 197.86 149.65 200.25 149.08 C 199.79 144.65 203.17 141.15 203.20 136.89 Z" />
<path fill="#938979" opacity="0.98" d=" M 252.83 138.18 C 254.38 135.88 257.00 136.77 259.22 137.24 C 260.63 141.63 262.73 145.92 263.06 150.57 C 263.94 151.29 264.27 152.28 264.06 153.55 C 264.92 154.29 265.27 155.29 265.11 156.53 C 266.59 157.75 265.42 160.74 268.27 160.32 C 266.84 160.27 265.42 160.22 264.01 160.15 C 263.56 158.61 263.09 157.08 262.66 155.55 C 262.31 154.54 261.97 153.53 261.65 152.52 C 261.18 151.23 260.76 149.93 260.30 148.65 C 259.95 147.62 259.58 146.60 259.20 145.59 C 259.09 145.08 258.86 144.07 258.75 143.56 C 257.99 141.65 257.32 139.71 256.59 137.79 C 255.08 139.41 254.25 141.47 253.61 143.56 C 253.29 144.58 252.98 145.60 252.68 146.62 C 251.88 148.23 251.18 149.88 250.64 151.60 C 249.85 154.17 247.44 156.80 248.54 159.57 C 246.84 160.42 244.07 162.26 242.85 159.58 C 243.87 158.96 244.90 158.38 245.92 157.77 C 245.72 156.52 246.00 155.46 246.75 154.59 C 247.67 152.53 248.23 150.33 249.23 148.30 C 249.86 147.42 250.15 146.41 250.10 145.28 C 251.42 144.46 250.59 142.56 251.75 141.61 C 251.98 140.89 252.44 139.43 252.67 138.71 C 252.71 138.57 252.79 138.31 252.83 138.18 Z" />
<path fill="#938979" opacity="0.98" d=" M 96.14 148.78 C 96.29 148.62 96.57 148.28 96.71 148.12 C 96.57 148.28 96.29 148.62 96.14 148.78 Z" />
<path fill="#938979" opacity="0.98" d=" M 96.15 154.21 C 96.29 154.38 96.58 154.71 96.72 154.88 C 96.58 154.71 96.29 154.38 96.15 154.21 Z" />
<path fill="#938979" opacity="0.98" d=" M 65.17 163.22 C 65.31 163.39 65.58 163.72 65.72 163.89 C 65.58 163.72 65.31 163.39 65.17 163.22 Z" />
<path fill="#938979" opacity="0.98" d=" M 98.21 170.21 C 98.33 170.38 98.57 170.71 98.70 170.88 C 98.57 170.71 98.33 170.38 98.21 170.21 Z" />
<path fill="#938979" opacity="0.98" d=" M 99.22 174.22 C 99.33 174.38 99.57 174.71 99.69 174.87 C 99.57 174.71 99.33 174.38 99.22 174.22 Z" />
<path fill="#938979" opacity="0.98" d=" M 68.16 177.22 C 68.29 177.39 68.55 177.72 68.68 177.89 C 68.55 177.72 68.29 177.39 68.16 177.22 Z" />
<path fill="#938979" opacity="0.98" d=" M 100.36 177.69 L 100.69 177.26 C 100.70 177.45 100.74 177.83 100.76 178.02 L 100.36 177.69 Z" />
<path fill="#938979" opacity="0.98" d=" M 101.41 180.18 C 101.48 180.35 101.62 180.69 101.69 180.86 C 101.62 180.69 101.48 180.35 101.41 180.18 Z" />
<path fill="#938979" opacity="0.98" d=" M 69.24 181.22 C 69.36 181.38 69.58 181.72 69.69 181.89 C 69.58 181.72 69.36 181.38 69.24 181.22 Z" />
<path fill="#938979" opacity="0.98" d=" M 70.24 185.24 C 70.35 185.40 70.56 185.72 70.67 185.88 C 70.56 185.72 70.35 185.40 70.24 185.24 Z" />
<path fill="#938979" opacity="0.98" d=" M 71.25 188.23 C 71.35 188.39 71.56 188.72 71.67 188.88 C 71.56 188.72 71.35 188.39 71.25 188.23 Z" />
<path fill="#938979" opacity="0.98" d=" M 106.41 190.31 C 106.45 190.43 106.52 190.69 106.55 190.81 C 106.52 190.69 106.45 190.43 106.41 190.31 Z" />
<path fill="#938979" opacity="0.98" d=" M 72.27 191.23 C 72.37 191.39 72.57 191.72 72.67 191.88 C 72.57 191.72 72.37 191.39 72.27 191.23 Z" />
<path fill="#938979" opacity="0.98" d=" M 76.37 199.34 C 76.41 199.44 76.50 199.64 76.54 199.74 C 76.50 199.64 76.41 199.44 76.37 199.34 Z" />
<path fill="#938979" opacity="0.98" d=" M 77.27 201.27 L 77.51 201.53 L 77.65 201.87 C 77.55 201.72 77.36 201.42 77.27 201.27 Z" />
<path fill="#938979" opacity="0.98" d=" M 78.29 203.38 C 78.34 203.48 78.44 203.68 78.49 203.78 C 78.44 203.68 78.34 203.48 78.29 203.38 Z" />
<path fill="#938979" opacity="0.98" d=" M 79.31 205.18 L 79.65 205.48 L 79.70 205.89 C 79.60 205.72 79.41 205.36 79.31 205.18 Z" />
<path fill="#938979" opacity="0.98" d=" M 216.83 216.92 C 217.16 216.42 217.84 215.41 218.17 214.91 L 218.88 214.95 C 219.04 216.43 218.35 217.09 216.83 216.92 Z" />
<path fill="#938979" opacity="0.98" d=" M 215.32 217.66 C 215.43 217.61 215.66 217.50 215.77 217.45 C 215.66 217.50 215.43 217.61 215.32 217.66 Z" />
<path fill="#938979" opacity="0.98" d=" M 213.48 218.46 L 213.83 218.32 C 213.68 218.41 213.36 218.61 213.20 218.70 L 213.48 218.46 Z" />
<path fill="#938979" opacity="0.98" d=" M 211.13 219.94 C 211.30 219.81 211.62 219.54 211.78 219.40 C 211.62 219.54 211.30 219.81 211.13 219.94 Z" />
<path fill="#938979" opacity="0.98" d=" M 209.32 220.90 C 209.77 220.66 210.68 220.18 211.13 219.94 L 211.01 220.78 C 210.59 220.81 209.74 220.87 209.32 220.90 Z" />
<path fill="#938979" opacity="0.98" d=" M 144.97 220.91 C 146.37 220.65 147.31 221.14 147.79 222.37 C 146.36 222.74 145.42 222.26 144.97 220.91 Z" />
<path fill="#938979" opacity="0.98" d=" M 147.79 222.37 C 149.10 221.98 150.22 222.32 151.14 223.39 C 150.29 223.30 148.57 223.14 147.71 223.06 L 147.79 222.37 Z" />
<path fill="#938979" opacity="0.98" d=" M 205.45 222.29 L 205.90 222.26 C 205.71 222.35 205.34 222.54 205.15 222.63 L 205.45 222.29 Z" />
<path fill="#938979" opacity="0.98" d=" M 145.12 222.97 C 145.77 222.99 147.06 223.04 147.71 223.06 L 147.81 223.69 C 146.32 224.66 145.42 224.42 145.12 222.97 Z" />
<path fill="#938979" opacity="0.98" d=" M 152.03 223.55 C 152.18 223.59 152.48 223.67 152.63 223.72 C 152.48 223.67 152.18 223.59 152.03 223.55 Z" />
<path fill="#938979" opacity="0.98" d=" M 203.27 223.78 C 203.41 223.69 203.69 223.49 203.82 223.39 C 203.69 223.49 203.41 223.69 203.27 223.78 Z" />
<path fill="#938979" opacity="0.98" d=" M 148.95 223.97 C 149.44 224.17 150.42 224.56 150.91 224.76 L 150.08 225.27 L 149.07 224.86 L 148.95 223.97 Z" />
<path fill="#938979" opacity="0.98" d=" M 191.20 225.39 C 191.94 223.96 193.58 223.89 194.96 224.28 C 194.19 225.59 192.57 226.18 191.20 225.39 Z" />
<path fill="#938979" opacity="0.98" d=" M 200.21 224.80 C 200.37 224.68 200.70 224.43 200.87 224.31 C 200.70 224.43 200.37 224.68 200.21 224.80 Z" />
<path fill="#938979" opacity="0.98" d=" M 152.16 225.40 C 152.31 225.50 152.60 225.71 152.74 225.81 C 152.60 225.71 152.31 225.50 152.16 225.40 Z" />
<path fill="#938979" opacity="0.98" d=" M 160.01 225.79 C 161.85 224.34 164.15 225.65 165.85 226.65 C 163.85 227.67 161.70 227.08 160.01 225.79 Z" />
<path fill="#938979" opacity="0.98" d=" M 196.07 225.67 C 196.25 225.57 196.60 225.39 196.77 225.30 C 196.60 225.39 196.25 225.57 196.07 225.67 Z" />
<path fill="#938979" opacity="0.98" d=" M 180.10 226.86 C 181.11 224.93 183.50 225.68 185.03 226.44 C 183.51 227.29 181.75 227.34 180.10 226.86 Z" />
<path fill="#938979" opacity="0.98" d=" M 158.88 227.25 C 159.42 227.39 160.50 227.69 161.04 227.83 C 160.52 227.86 159.50 227.92 158.99 227.95 L 158.88 227.25 Z" />
<path fill="#938979" opacity="0.98" d=" M 186.19 227.76 C 187.20 227.31 188.24 226.94 189.32 226.65 C 191.59 226.16 191.21 228.90 189.11 228.21 C 188.38 228.10 186.92 227.87 186.19 227.76 Z" />
<path fill="#938979" opacity="0.98" d=" M 106.14 233.47 C 107.22 233.66 107.93 234.29 108.26 235.34 C 107.79 235.39 106.87 235.49 106.41 235.55 C 106.34 235.03 106.21 233.99 106.14 233.47 Z" />
<path fill="#938979" opacity="0.98" d=" M 108.26 235.34 C 108.46 235.48 108.88 235.76 109.09 235.90 C 108.88 235.76 108.46 235.48 108.26 235.34 Z" />
<path fill="#938979" opacity="0.98" d=" M 109.09 235.90 C 109.28 236.15 109.66 236.66 109.85 236.91 C 109.66 236.66 109.28 236.15 109.09 235.90 Z" />
<path fill="#938979" opacity="0.98" d=" M 125.64 236.24 C 127.22 235.94 128.72 236.89 129.28 238.38 C 127.74 238.44 126.24 237.71 125.64 236.24 Z" />
<path fill="#938979" opacity="0.98" d=" M 109.85 236.91 C 110.33 237.16 111.31 237.64 111.80 237.88 C 111.33 237.86 110.40 237.80 109.93 237.78 L 109.85 236.91 Z" />
<path fill="#938979" opacity="0.98" d=" M 130.88 237.28 C 131.36 237.25 132.31 237.19 132.78 237.16 L 133.03 238.00 C 132.49 237.82 131.42 237.46 130.88 237.28 Z" />
<path fill="#938979" opacity="0.98" d=" M 109.19 238.00 L 109.93 237.78 L 109.97 238.39 C 109.77 238.29 109.38 238.09 109.19 238.00 Z" />
<path fill="#938979" opacity="0.98" d=" M 111.80 237.88 C 113.27 237.79 114.01 238.44 114.01 239.82 L 113.13 240.06 C 112.80 239.52 112.13 238.43 111.80 237.88 Z" />
<path fill="#938979" opacity="0.98" d=" M 129.28 238.38 C 129.39 238.43 129.60 238.53 129.71 238.58 C 129.60 238.53 129.39 238.43 129.28 238.38 Z" />
<path fill="#938979" opacity="0.98" d=" M 133.03 238.00 C 133.51 238.07 134.47 238.20 134.95 238.27 L 135.11 239.18 C 134.59 238.88 133.55 238.30 133.03 238.00 Z" />
<path fill="#938979" opacity="0.98" d=" M 135.11 239.18 C 136.02 239.12 137.84 239.01 138.75 238.95 C 138.58 239.30 138.23 240.01 138.06 240.36 C 137.00 240.17 136.02 239.78 135.11 239.18 Z" />
<path fill="#938979" opacity="0.98" d=" M 112.53 240.21 L 113.13 240.06 L 113.23 240.73 C 113.06 240.60 112.71 240.34 112.53 240.21 Z" />
<path fill="#938979" opacity="0.98" d=" M 114.92 240.38 C 115.08 240.46 115.40 240.62 115.56 240.70 L 115.00 241.02 L 114.92 240.38 Z" />
<path fill="#938979" opacity="0.98" d=" M 114.25 241.22 L 115.00 241.02 L 115.08 241.81 C 114.87 241.66 114.46 241.37 114.25 241.22 Z" />
<path fill="#938979" opacity="0.98" d=" M 115.08 241.81 C 115.29 242.07 115.71 242.57 115.92 242.82 C 115.71 242.57 115.29 242.07 115.08 241.81 Z" />
<path fill="#938979" opacity="0.98" d=" M 117.86 242.01 C 118.31 242.25 119.21 242.74 119.66 242.99 C 119.16 242.94 118.16 242.86 117.66 242.82 L 117.86 242.01 Z" />
<path fill="#938979" opacity="0.98" d=" M 115.92 242.82 C 116.36 242.82 117.22 242.82 117.66 242.82 L 117.91 243.76 L 117.05 244.07 C 116.77 243.76 116.21 243.13 115.92 242.82 Z" />
<path fill="#938979" opacity="0.98" d=" M 117.91 243.76 C 118.06 243.92 118.36 244.25 118.51 244.41 C 118.36 244.25 118.06 243.92 117.91 243.76 Z" />
<path fill="#938979" opacity="0.98" d=" M 122.29 244.40 C 122.44 244.49 122.74 244.68 122.89 244.78 C 122.74 244.68 122.44 244.49 122.29 244.40 Z" />
<path fill="#938979" opacity="0.98" d=" M 120.16 245.45 C 120.29 245.57 120.55 245.83 120.68 245.96 C 120.55 245.83 120.29 245.57 120.16 245.45 Z" />
<path fill="#938979" opacity="0.98" d=" M 123.75 245.38 C 124.03 245.55 124.58 245.90 124.86 246.08 L 124.22 246.13 L 123.75 245.38 Z" />
<path fill="#938979" opacity="0.98" d=" M 122.36 246.01 C 122.82 246.04 123.75 246.10 124.22 246.13 L 124.30 246.78 C 123.81 246.77 122.82 246.76 122.32 246.76 L 122.36 246.01 Z" />
<path fill="#938979" opacity="0.98" d=" M 124.86 246.08 C 125.05 246.19 125.44 246.43 125.64 246.54 L 124.97 246.67 L 124.86 246.08 Z" />
<path fill="#938979" opacity="0.98" d=" M 124.30 246.78 L 124.97 246.67 L 125.03 247.29 L 124.41 247.41 L 124.30 246.78 Z" />
<path fill="#938979" opacity="0.98" d=" M 128.04 247.46 C 128.19 247.52 128.49 247.63 128.64 247.68 C 128.49 247.63 128.19 247.52 128.04 247.46 Z" />
<path fill="#938979" opacity="0.98" d=" M 128.64 247.68 C 129.18 247.94 130.26 248.46 130.80 248.72 C 130.26 248.64 129.18 248.48 128.64 248.40 L 128.64 247.68 Z" />
<path fill="#938979" opacity="0.98" d=" M 129.25 250.40 C 129.34 250.45 129.52 250.53 129.61 250.58 C 129.52 250.53 129.34 250.45 129.25 250.40 Z" />
<path fill="#938979" opacity="0.98" d=" M 190.23 258.85 C 190.39 258.71 190.72 258.44 190.89 258.31 C 190.72 258.44 190.39 258.71 190.23 258.85 Z" />
<path fill="#938979" opacity="0.98" d=" M 172.12 259.28 C 172.29 259.43 172.62 259.71 172.79 259.85 C 172.62 259.71 172.29 259.43 172.12 259.28 Z" />
<path fill="#938979" opacity="0.98" d=" M 176.22 259.85 C 176.39 259.71 176.72 259.43 176.88 259.29 C 176.72 259.43 176.39 259.71 176.22 259.85 Z" />
</g>
<g id="#37332eff">
<path fill="#37332e" opacity="1.00" d=" M 160.78 43.16 C 162.71 43.02 164.65 42.95 166.58 43.02 C 171.85 43.25 177.13 43.24 182.41 43.03 C 184.69 43.32 187.73 42.05 189.47 43.93 C 191.52 44.00 193.58 44.00 195.64 44.06 C 196.79 45.63 199.01 44.62 200.59 45.32 C 201.90 45.96 203.37 45.99 204.80 46.09 C 205.18 46.54 205.94 47.45 206.32 47.91 C 207.72 48.13 209.49 47.57 210.51 48.88 C 211.04 48.93 212.12 49.05 212.65 49.11 C 213.49 49.82 214.48 50.20 215.63 50.25 C 216.31 50.53 217.67 51.10 218.35 51.38 C 218.45 51.42 218.66 51.49 218.77 51.53 C 220.14 51.90 221.37 52.54 222.46 53.45 C 222.63 53.58 222.95 53.85 223.11 53.99 C 223.31 54.18 223.70 54.56 223.89 54.76 C 224.40 55.07 225.42 55.71 225.92 56.02 L 227.26 56.13 C 227.42 56.26 227.74 56.50 227.90 56.63 C 228.61 56.76 230.02 57.03 230.72 57.17 C 231.61 57.94 232.50 58.70 233.41 59.46 C 233.58 59.61 233.92 59.90 234.09 60.05 C 234.33 60.27 234.82 60.71 235.06 60.93 C 235.26 61.13 235.68 61.54 235.89 61.74 C 236.41 62.05 237.44 62.67 237.96 62.98 C 240.15 63.58 241.80 65.19 243.41 66.70 C 246.97 67.89 248.27 72.41 252.00 73.21 C 252.00 74.73 252.00 76.25 252.00 77.77 C 250.16 79.42 248.42 81.17 246.75 83.01 C 244.34 83.10 241.62 83.53 240.45 80.87 C 240.37 80.79 240.21 80.63 240.13 80.54 C 239.00 79.86 238.28 78.93 237.95 77.77 C 237.89 77.49 237.78 76.92 237.72 76.64 C 236.71 75.73 235.36 75.46 234.11 75.07 C 233.74 74.82 233.01 74.32 232.65 74.07 C 228.23 71.52 224.69 67.47 219.68 66.07 L 218.63 65.63 C 218.50 65.50 218.25 65.26 218.13 65.14 C 216.96 63.53 215.03 62.63 213.05 62.95 C 211.58 62.63 210.17 61.86 209.12 60.77 C 208.59 60.59 207.53 60.25 207.00 60.07 L 206.22 59.71 C 205.23 59.07 204.16 58.86 203.00 59.06 L 202.17 58.72 C 201.29 57.96 199.67 57.35 198.79 58.43 L 198.74 58.48 L 198.20 58.13 C 195.34 56.11 191.64 56.54 188.36 55.87 C 183.31 54.72 178.10 55.41 172.97 55.25 C 165.28 54.95 157.49 55.74 150.11 57.95 L 149.89 57.98 C 148.67 57.69 147.70 57.97 146.98 58.81 L 146.42 59.67 L 146.28 59.50 C 145.63 58.28 143.76 58.77 143.35 59.95 C 142.85 61.70 140.49 60.47 139.69 61.97 C 139.02 61.98 137.69 62.01 137.02 62.02 C 137.01 62.49 137.01 63.42 137.00 63.88 C 135.16 64.42 133.32 65.00 131.39 65.15 C 130.99 65.61 130.18 66.52 129.77 66.98 C 129.21 67.01 128.10 67.07 127.55 67.10 C 126.85 67.41 125.46 68.03 124.76 68.34 L 124.30 68.40 L 124.00 68.75 C 123.60 69.12 122.81 69.86 122.41 70.23 C 120.09 71.99 117.04 72.83 115.19 75.17 L 114.59 75.95 L 113.82 76.03 C 112.22 75.96 111.62 77.65 110.95 78.77 L 109.77 79.56 C 109.61 79.71 109.31 80.03 109.15 80.18 C 108.98 80.29 108.64 80.49 108.47 80.59 C 106.26 82.33 104.36 84.41 102.53 86.53 C 102.39 86.67 102.12 86.95 101.99 87.09 C 101.79 87.28 101.39 87.67 101.19 87.86 C 100.20 88.66 99.67 89.82 99.27 90.99 C 98.92 91.37 98.20 92.15 97.85 92.53 C 97.77 92.61 97.61 92.76 97.53 92.84 C 97.18 93.19 96.47 93.91 96.12 94.26 C 92.89 97.33 92.17 101.98 89.36 105.34 C 88.11 106.94 87.45 108.89 86.59 110.70 C 85.14 113.77 84.17 117.03 83.22 120.27 L 84.00 120.33 C 83.61 120.67 82.84 121.36 82.46 121.70 C 82.36 121.87 82.17 122.22 82.08 122.40 L 81.64 123.18 C 80.36 127.50 79.64 131.96 78.95 136.41 L 78.79 136.94 L 78.43 137.98 C 78.10 144.64 78.46 151.31 78.26 157.98 C 77.97 162.18 79.28 166.25 79.59 170.41 L 79.73 171.29 C 79.72 172.51 80.12 173.50 80.94 174.28 L 80.84 174.90 C 81.05 175.38 81.48 176.36 81.69 176.84 C 82.04 178.09 82.30 179.37 82.64 180.62 C 82.89 181.22 83.39 182.40 83.63 183.00 C 83.88 184.78 84.02 186.96 85.81 187.92 L 85.06 187.68 C 86.36 190.68 87.72 193.66 89.09 196.64 C 89.71 197.54 90.82 197.88 91.81 198.20 C 92.29 199.32 92.79 200.42 93.31 201.53 C 93.97 202.65 94.33 203.91 94.63 205.18 C 94.78 205.54 95.09 206.27 95.24 206.63 L 96.02 206.71 C 96.46 206.84 97.35 207.11 97.79 207.25 L 97.76 207.68 L 97.50 208.00 C 97.60 209.92 98.84 211.64 100.15 212.98 C 100.25 213.08 100.45 213.30 100.55 213.40 C 102.16 215.14 103.95 216.71 105.86 218.11 C 107.09 219.91 108.52 221.60 110.48 222.64 C 110.71 222.79 111.18 223.10 111.41 223.26 C 111.50 223.32 111.69 223.46 111.79 223.53 C 113.68 224.94 115.30 226.66 117.09 228.18 C 117.25 228.29 117.56 228.50 117.71 228.61 C 118.25 228.99 119.32 229.76 119.86 230.15 C 120.91 231.54 122.29 232.69 124.04 233.04 C 126.60 233.91 129.26 234.98 130.88 237.28 C 131.42 237.46 132.49 237.82 133.03 238.00 C 133.55 238.30 134.59 238.88 135.11 239.18 C 136.02 239.78 137.00 240.17 138.06 240.36 C 138.86 240.49 139.67 240.58 140.48 240.63 C 140.94 242.66 143.34 243.54 145.21 243.25 L 145.21 243.18 C 149.88 244.80 154.84 245.87 159.80 245.72 C 163.08 246.26 166.42 245.76 169.71 246.10 L 170.49 246.94 C 172.83 247.02 175.17 247.02 177.51 246.94 L 178.29 246.10 C 181.68 245.78 185.11 246.13 188.52 245.94 C 189.84 244.08 192.57 245.34 194.52 244.94 C 195.41 243.31 197.51 244.27 198.98 243.89 C 201.68 243.40 204.09 241.69 206.94 241.87 C 206.96 241.43 206.99 240.53 207.01 240.08 C 207.83 239.85 209.47 239.40 210.29 239.17 C 212.48 240.25 214.69 239.62 215.13 236.93 C 217.01 237.98 219.82 238.25 218.96 235.06 C 222.63 235.75 224.48 232.06 227.39 230.67 C 228.69 229.92 229.97 229.12 231.26 228.34 C 233.50 227.07 234.83 224.63 237.28 223.71 C 238.56 223.30 239.06 221.96 239.83 221.00 C 241.06 220.95 242.27 220.78 243.46 220.50 C 243.89 219.73 244.77 218.19 245.20 217.43 C 247.27 219.72 248.58 223.58 252.00 224.19 C 252.00 225.72 252.00 227.26 252.00 228.80 C 247.53 230.19 245.71 235.54 241.41 237.30 C 240.00 238.67 238.52 240.01 236.67 240.73 C 234.64 241.50 233.47 243.54 231.46 244.33 C 230.52 244.79 229.59 245.27 228.66 245.76 C 226.61 246.70 224.56 247.68 222.65 248.89 C 222.11 248.94 221.03 249.05 220.49 249.11 C 219.36 250.23 218.05 251.14 216.68 251.93 C 216.14 251.98 215.07 252.10 214.54 252.15 C 213.31 252.88 211.87 253.10 210.63 253.80 C 208.54 254.07 206.51 254.61 204.51 255.28 C 202.75 256.63 200.36 255.80 198.32 256.03 C 197.94 256.52 197.17 257.50 196.79 257.99 C 194.82 257.98 192.83 257.92 190.89 258.31 C 190.72 258.44 190.39 258.71 190.23 258.85 C 185.79 259.27 181.30 258.64 176.88 259.29 C 176.72 259.43 176.39 259.71 176.22 259.85 C 175.36 259.85 173.65 259.85 172.79 259.85 C 172.62 259.71 172.29 259.43 172.12 259.28 C 167.24 258.65 162.31 259.22 157.41 258.93 C 155.41 257.25 152.37 258.55 150.32 256.76 C 148.73 255.21 146.07 256.82 144.51 255.23 C 143.37 255.19 142.38 254.83 141.52 254.15 C 140.19 253.88 138.55 254.34 137.53 253.23 C 136.37 253.20 135.37 252.83 134.53 252.13 C 133.98 252.07 132.90 251.94 132.35 251.87 C 131.67 251.55 130.30 250.90 129.61 250.58 C 129.52 250.53 129.34 250.45 129.25 250.40 L 128.64 248.40 C 129.18 248.48 130.26 248.64 130.80 248.72 C 144.75 254.55 159.80 258.00 174.97 257.80 C 203.08 257.92 231.06 246.18 250.74 226.12 C 248.19 224.55 245.96 222.56 243.88 220.43 C 230.60 233.76 213.39 243.17 194.95 246.96 C 173.06 251.50 149.72 248.61 129.71 238.58 C 129.60 238.53 129.39 238.43 129.28 238.38 C 128.72 236.89 127.22 235.94 125.64 236.24 C 103.38 223.34 85.97 201.76 79.29 176.79 C 73.76 157.44 74.89 136.45 81.76 117.58 C 85.91 105.80 92.68 95.12 100.67 85.59 C 100.78 85.46 100.99 85.22 101.09 85.09 C 101.21 84.98 101.43 84.75 101.54 84.64 C 103.29 82.98 104.97 81.27 106.63 79.53 C 106.76 79.40 107.03 79.14 107.16 79.02 C 107.36 78.86 107.75 78.56 107.95 78.41 L 108.80 77.82 C 108.96 77.70 109.27 77.46 109.43 77.35 C 125.74 62.72 147.25 54.41 169.03 53.03 C 194.75 51.67 221.02 60.57 240.18 77.89 C 241.45 78.91 242.54 80.26 244.10 80.85 C 246.26 79.51 248.25 77.77 249.71 75.68 C 249.77 74.29 248.25 73.48 247.46 72.54 C 240.66 66.95 233.76 61.29 225.76 57.49 C 225.66 57.43 225.45 57.31 225.34 57.26 C 208.68 47.69 189.12 43.83 170.03 44.43 C 153.89 44.96 138.08 49.48 123.75 56.84 C 123.31 57.20 122.43 57.93 121.98 58.29 L 121.14 58.28 C 119.69 57.90 118.13 58.64 118.07 60.27 C 115.78 61.65 113.48 63.02 111.22 64.47 C 109.82 64.32 109.00 64.93 108.76 66.30 C 108.62 66.43 108.34 66.69 108.20 66.82 C 107.62 66.99 106.47 67.34 105.90 67.52 C 105.03 68.84 104.13 70.14 103.17 71.40 C 82.94 88.80 70.18 114.32 67.56 140.81 C 66.79 152.72 67.09 164.82 70.19 176.41 C 75.48 198.70 88.46 218.95 106.14 233.47 C 106.21 233.99 106.34 235.03 106.41 235.55 L 105.79 235.30 C 105.23 234.92 104.13 234.15 103.57 233.77 C 103.47 233.71 103.27 233.60 103.17 233.54 L 102.08 233.00 C 100.28 231.30 98.62 229.47 96.84 227.77 C 96.66 227.59 96.30 227.23 96.12 227.05 C 94.38 225.29 92.60 223.56 90.88 221.79 C 90.38 221.00 89.99 220.15 89.71 219.26 C 88.22 219.00 87.23 217.84 86.22 216.84 C 85.48 214.99 84.22 213.43 83.19 211.75 C 82.69 210.51 82.19 209.27 81.73 208.02 C 81.30 208.01 80.43 208.00 80.00 208.00 C 79.93 207.47 79.77 206.42 79.70 205.89 L 79.65 205.48 L 79.31 205.18 L 78.49 203.78 C 78.44 203.68 78.34 203.48 78.29 203.38 L 77.65 201.87 L 77.51 201.53 L 77.27 201.27 L 76.54 199.74 C 76.50 199.64 76.41 199.44 76.37 199.34 C 76.11 198.66 75.61 197.32 75.36 196.65 C 74.84 195.50 73.98 194.58 73.13 193.69 C 73.01 193.23 72.78 192.33 72.67 191.88 C 72.57 191.72 72.37 191.39 72.27 191.23 C 72.12 190.64 71.82 189.47 71.67 188.88 C 71.56 188.72 71.35 188.39 71.25 188.23 C 71.10 187.65 70.82 186.47 70.67 185.88 C 70.56 185.72 70.35 185.40 70.24 185.24 C 70.10 184.40 69.83 182.73 69.69 181.89 C 69.58 181.72 69.36 181.38 69.24 181.22 C 69.10 180.38 68.82 178.72 68.68 177.89 C 68.55 177.72 68.29 177.39 68.16 177.22 C 68.05 175.60 68.00 173.98 67.96 172.36 C 67.47 171.97 66.49 171.18 66.00 170.79 C 66.02 168.49 66.11 166.17 65.72 163.89 C 65.58 163.72 65.31 163.39 65.17 163.22 C 64.81 154.95 65.04 146.66 65.05 138.38 C 66.91 136.55 65.66 133.54 66.00 131.22 C 66.48 130.83 67.46 130.07 67.94 129.69 C 67.99 128.04 68.05 126.40 68.17 124.77 C 68.29 124.60 68.54 124.28 68.66 124.11 C 68.81 123.27 69.10 121.59 69.25 120.75 C 69.35 120.59 69.56 120.27 69.66 120.11 C 69.81 119.53 70.12 118.36 70.27 117.77 C 70.37 117.61 70.56 117.27 70.65 117.10 C 70.91 114.91 71.35 112.76 72.30 110.76 C 72.38 110.61 72.55 110.30 72.63 110.14 C 72.76 109.68 73.01 108.76 73.14 108.30 C 74.19 107.30 75.23 106.23 75.33 104.67 C 75.39 104.55 75.50 104.32 75.56 104.20 L 76.32 102.61 C 76.37 102.51 76.46 102.32 76.50 102.23 L 77.28 100.62 C 77.33 100.52 77.42 100.33 77.47 100.24 L 78.28 98.60 C 78.33 98.51 78.43 98.33 78.48 98.24 L 79.34 96.80 L 79.65 96.50 L 79.70 96.09 C 79.77 95.57 79.92 94.52 80.00 94.00 C 80.43 94.00 81.30 93.98 81.73 93.98 C 84.34 86.69 90.33 81.41 95.34 75.76 C 95.40 75.69 95.54 75.55 95.61 75.48 C 99.65 72.65 102.21 67.87 106.67 65.75 C 107.56 64.85 108.44 63.93 109.30 63.00 C 109.90 63.00 111.12 63.00 111.73 62.99 C 112.11 62.37 112.86 61.12 113.24 60.50 C 113.32 60.44 113.49 60.32 113.57 60.26 C 114.48 59.60 115.37 58.92 116.24 58.21 C 118.45 57.97 120.31 56.68 122.20 55.63 L 122.47 55.49 L 122.72 55.38 C 123.18 55.22 124.09 54.89 124.54 54.72 C 124.97 54.42 125.83 53.81 126.26 53.50 C 126.35 53.45 126.51 53.35 126.59 53.29 C 127.81 52.57 129.06 51.90 130.30 51.21 C 131.48 51.20 132.49 50.83 133.35 50.10 C 133.90 50.05 135.02 49.94 135.58 49.89 C 136.38 49.13 137.37 48.76 138.55 48.78 C 139.57 47.58 141.29 48.14 142.65 47.93 C 143.04 47.46 143.82 46.53 144.21 46.07 C 145.51 45.99 146.81 45.87 148.11 45.70 C 148.28 45.59 148.62 45.35 148.79 45.24 C 150.24 45.08 151.68 44.90 153.11 44.68 C 153.28 44.55 153.61 44.31 153.78 44.18 C 155.89 44.05 158.02 44.02 160.11 43.69 C 160.28 43.56 160.61 43.29 160.78 43.16 Z" />
<path fill="#37332e" opacity="1.00" d=" M 168.33 73.14 C 172.27 72.80 176.26 72.98 180.22 73.16 C 180.38 73.30 180.72 73.58 180.89 73.71 C 183.78 74.19 186.73 73.93 189.65 74.04 C 190.68 75.55 192.73 74.81 194.22 75.20 C 194.39 75.32 194.71 75.55 194.88 75.67 C 195.53 75.80 196.84 76.08 197.49 76.21 C 197.57 76.28 197.73 76.42 197.82 76.49 C 198.24 76.85 199.09 77.56 199.51 77.92 C 200.20 77.98 201.58 78.10 202.27 78.16 C 202.41 78.27 202.69 78.48 202.83 78.59 L 204.17 79.35 L 204.47 79.65 L 204.89 79.71 C 205.48 79.83 206.67 80.06 207.26 80.17 C 207.42 80.30 207.74 80.55 207.90 80.68 C 208.48 80.82 209.65 81.10 210.23 81.25 C 210.40 81.35 210.73 81.57 210.90 81.68 C 211.41 81.78 212.43 81.99 212.95 82.09 L 213.51 83.28 C 213.65 83.46 213.94 83.80 214.09 83.98 C 214.24 84.08 214.54 84.29 214.69 84.39 L 216.16 85.37 L 216.47 85.68 L 216.89 85.73 C 217.36 85.80 218.29 85.95 218.76 86.02 C 219.85 87.19 220.97 88.33 222.19 89.37 C 222.35 89.45 222.68 89.61 222.84 89.69 C 223.33 89.78 224.30 89.97 224.79 90.07 C 225.22 92.53 227.66 93.81 229.26 95.47 C 229.45 95.59 229.83 95.82 230.02 95.94 C 230.02 96.68 230.02 98.15 230.03 98.89 C 228.70 99.05 227.95 99.81 227.78 101.16 L 227.10 101.31 L 227.04 102.03 L 226.33 102.13 L 226.23 102.81 C 224.88 103.04 223.71 103.78 222.65 104.59 L 222.17 104.93 C 221.41 104.00 220.38 103.70 219.09 104.01 C 217.78 103.94 216.99 103.20 216.73 101.79 L 216.63 101.34 L 216.27 101.06 C 215.86 100.65 215.02 99.83 214.61 99.42 C 214.50 99.30 214.30 99.08 214.19 98.96 C 213.62 98.65 212.48 98.03 211.91 97.72 C 211.70 97.55 211.29 97.21 211.08 97.05 C 210.56 96.73 209.51 96.10 208.99 95.79 C 208.72 95.54 208.18 95.06 207.91 94.82 C 206.89 93.18 204.87 92.87 203.25 92.12 C 195.17 87.13 185.25 86.51 176.03 85.28 C 166.61 85.45 157.15 87.31 148.30 90.62 L 147.66 91.13 C 147.49 91.28 147.13 91.57 146.96 91.72 L 146.31 91.73 C 144.46 92.17 142.59 93.55 141.31 94.92 L 140.82 96.13 L 139.83 95.86 L 139.10 95.66 C 138.88 95.96 138.43 96.55 138.20 96.84 L 137.91 98.10 L 137.11 97.90 C 136.65 98.12 135.74 98.56 135.29 98.79 C 134.90 99.60 134.28 100.17 133.41 100.51 C 130.63 102.30 128.47 104.85 126.07 107.09 C 122.62 110.19 120.18 114.15 117.69 118.02 C 114.52 122.25 113.30 127.49 111.52 132.38 C 111.47 132.48 111.38 132.68 111.33 132.78 L 110.80 133.75 C 110.05 134.79 109.76 135.94 109.91 137.20 C 109.88 137.83 109.81 139.08 109.78 139.71 C 109.18 140.65 108.82 141.68 108.71 142.78 L 108.59 143.57 C 108.28 150.37 107.95 157.27 109.40 163.97 C 109.68 169.32 113.14 173.64 114.53 178.68 C 115.23 181.32 116.56 183.71 118.31 185.80 C 121.08 189.05 122.87 193.09 126.14 195.91 C 126.58 195.95 127.46 196.03 127.90 196.07 L 127.93 196.97 C 127.99 198.38 128.73 199.11 130.14 199.16 L 130.76 199.18 L 131.00 199.78 C 131.69 201.97 134.07 202.82 135.58 204.35 C 139.05 207.84 144.25 208.59 147.83 211.91 L 148.38 212.35 C 153.31 214.60 158.74 215.44 164.03 216.43 C 170.93 216.91 177.86 216.36 184.78 216.68 L 184.88 216.01 L 185.03 215.00 C 188.16 215.11 191.64 214.52 194.30 213.06 C 194.85 213.02 195.96 212.94 196.51 212.90 C 197.41 211.97 198.57 211.64 199.99 211.89 C 199.99 211.44 200.00 210.52 200.00 210.07 C 200.50 210.03 201.50 209.96 201.99 209.93 C 209.02 209.03 214.10 203.56 218.94 198.91 L 219.45 198.69 C 219.79 198.80 220.47 199.03 220.81 199.15 C 220.87 199.39 220.99 199.86 221.05 200.10 C 208.43 211.90 191.31 219.10 173.93 218.75 C 159.28 218.72 144.66 213.90 133.05 204.93 C 119.02 194.54 109.67 178.34 107.02 161.15 C 104.67 144.77 108.55 127.51 117.94 113.86 C 126.86 100.53 140.65 90.62 156.08 86.28 C 175.82 80.61 197.84 84.67 214.47 96.65 C 214.60 96.75 214.86 96.95 214.99 97.05 C 215.18 97.21 215.57 97.53 215.76 97.70 C 216.05 97.88 216.62 98.25 216.90 98.43 C 217.42 99.76 218.02 101.07 218.82 102.27 C 219.38 102.32 220.50 102.43 221.06 102.48 C 221.50 102.52 222.39 102.60 222.84 102.64 C 223.24 102.33 224.03 101.70 224.43 101.39 C 224.56 101.27 224.81 101.05 224.94 100.94 C 225.06 100.82 225.30 100.57 225.42 100.45 C 226.33 99.50 227.23 98.55 228.12 97.59 L 228.45 97.45 C 228.41 97.42 228.34 97.34 228.30 97.30 C 215.77 84.70 198.67 76.69 180.94 75.31 C 172.88 74.95 164.69 75.04 156.83 77.05 C 128.59 83.45 105.21 107.42 99.72 135.88 C 96.20 153.34 98.68 172.28 107.72 187.74 L 105.81 187.83 C 103.82 187.95 103.91 185.37 103.83 184.00 C 103.39 184.00 102.51 184.00 102.07 184.00 C 101.97 183.21 101.78 181.64 101.69 180.86 C 101.62 180.69 101.48 180.35 101.41 180.18 C 101.20 179.90 100.79 179.33 100.58 179.05 L 100.76 178.02 C 100.74 177.83 100.70 177.45 100.69 177.26 L 100.36 177.69 C 100.19 176.98 99.86 175.57 99.69 174.87 C 99.57 174.71 99.33 174.38 99.22 174.22 C 99.09 173.39 98.83 171.72 98.70 170.88 C 98.57 170.71 98.33 170.38 98.21 170.21 C 97.83 168.71 98.51 166.69 97.05 165.64 C 96.87 162.05 97.24 158.44 96.72 154.88 C 96.58 154.71 96.29 154.38 96.15 154.21 C 95.99 152.40 95.99 150.59 96.14 148.78 C 96.29 148.62 96.57 148.28 96.71 148.12 C 97.79 144.37 95.76 139.78 97.90 136.53 C 97.99 134.94 98.05 133.36 98.16 131.78 C 98.29 131.61 98.55 131.28 98.68 131.11 C 98.82 130.28 99.09 128.61 99.22 127.78 C 99.33 127.62 99.56 127.29 99.67 127.13 C 99.81 126.54 100.09 125.36 100.23 124.77 C 100.34 124.61 100.57 124.28 100.68 124.12 C 100.82 123.53 101.10 122.36 101.24 121.77 C 101.35 121.61 101.57 121.28 101.68 121.12 C 101.79 120.67 102.01 119.76 102.12 119.31 C 102.87 118.48 103.60 117.62 104.29 116.73 C 104.37 116.61 104.52 116.36 104.60 116.24 L 105.33 114.82 L 105.64 114.52 L 105.71 114.11 C 105.80 113.62 105.99 112.64 106.09 112.15 C 106.59 111.82 107.61 111.16 108.11 110.83 L 108.05 110.12 C 108.02 109.64 107.96 108.67 107.92 108.19 C 108.69 107.58 109.48 106.99 110.27 106.42 C 111.64 105.57 113.00 104.44 113.21 102.74 C 113.41 102.57 113.83 102.23 114.03 102.06 C 114.15 101.85 114.39 101.43 114.51 101.23 C 114.67 100.72 114.98 99.71 115.14 99.20 C 117.20 97.24 119.17 95.19 121.23 93.23 C 122.67 92.95 123.49 91.72 124.37 90.67 C 124.44 90.60 124.59 90.45 124.66 90.37 C 126.76 88.56 129.17 87.14 131.49 85.64 C 132.63 85.08 133.76 84.51 134.94 84.07 C 135.98 83.80 136.78 83.20 137.35 82.28 L 138.19 81.58 C 138.31 81.47 138.56 81.27 138.68 81.17 C 139.29 81.05 140.51 80.83 141.12 80.72 L 141.54 80.66 L 141.84 80.36 L 143.16 79.60 C 143.30 79.50 143.58 79.31 143.71 79.22 C 144.32 79.09 145.52 78.83 146.12 78.70 C 146.29 78.60 146.63 78.39 146.80 78.28 C 148.35 78.05 149.93 77.70 151.15 76.63 C 151.28 76.53 151.54 76.33 151.66 76.23 C 152.28 76.09 153.52 75.82 154.13 75.68 C 154.30 75.56 154.63 75.32 154.79 75.20 C 156.24 75.08 157.68 74.91 159.12 74.70 C 159.29 74.57 159.62 74.29 159.79 74.16 C 162.35 73.96 164.93 74.00 167.50 73.93 L 168.33 73.14 Z" />
<path fill="#37332e" opacity="1.00" d=" M 105.81 187.83 C 107.15 188.11 108.37 188.71 108.95 190.01 C 112.06 195.23 115.76 200.11 120.14 204.34 L 118.78 205.62 C 119.37 205.44 119.97 205.25 120.56 205.07 C 127.80 211.53 135.67 217.77 144.97 220.91 C 145.42 222.26 146.36 222.74 147.79 222.37 L 147.71 223.06 C 147.06 223.04 145.77 222.99 145.12 222.97 C 144.47 222.97 143.18 222.96 142.53 222.96 C 142.45 222.84 142.28 222.61 142.20 222.50 L 141.60 221.67 L 141.37 221.33 C 140.05 220.31 138.64 219.28 136.94 219.06 L 135.62 218.80 C 135.52 218.72 135.32 218.56 135.22 218.48 C 134.79 218.13 133.91 217.44 133.48 217.09 C 132.94 217.05 131.87 216.97 131.34 216.93 C 127.09 213.57 122.87 210.19 118.66 206.78 C 115.77 202.97 111.96 199.94 109.56 195.71 C 109.49 195.62 109.35 195.43 109.28 195.33 C 108.59 194.43 107.87 193.54 107.13 192.69 C 106.99 192.22 106.70 191.28 106.55 190.81 C 106.52 190.69 106.45 190.43 106.41 190.31 C 106.26 189.69 105.96 188.45 105.81 187.83 Z" />
<path fill="#37332e" opacity="1.00" d=" M 222.02 198.10 L 222.22 197.48 C 225.15 198.95 227.03 201.84 229.88 203.47 C 230.21 203.69 230.88 204.12 231.22 204.34 C 230.28 206.97 227.91 209.21 225.35 210.29 C 223.74 211.80 222.21 213.40 220.71 215.03 C 220.25 215.01 219.34 214.97 218.88 214.95 L 218.17 214.91 C 217.84 215.41 217.16 216.42 216.83 216.92 L 215.77 217.45 C 215.66 217.50 215.43 217.61 215.32 217.66 L 213.83 218.32 L 213.48 218.46 L 213.20 218.70 L 211.78 219.40 C 211.62 219.54 211.30 219.81 211.13 219.94 C 210.68 220.18 209.77 220.66 209.32 220.90 L 208.95 221.97 C 208.19 222.04 206.66 222.19 205.90 222.26 L 205.45 222.29 L 205.15 222.63 L 203.82 223.39 C 203.69 223.49 203.41 223.69 203.27 223.78 C 202.67 223.92 201.47 224.18 200.87 224.31 C 200.70 224.43 200.37 224.68 200.21 224.80 C 199.35 224.93 197.63 225.17 196.77 225.30 C 196.60 225.39 196.25 225.57 196.07 225.67 C 195.75 226.02 195.10 226.72 194.77 227.07 L 194.98 225.83 C 193.19 225.96 191.50 227.21 189.70 226.53 L 189.32 226.65 C 188.24 226.94 187.20 227.31 186.19 227.76 C 185.53 228.05 184.22 228.64 183.56 228.93 L 182.90 228.92 C 176.36 228.89 169.84 228.87 163.32 228.36 C 162.75 228.23 161.61 227.96 161.04 227.83 C 160.50 227.69 159.42 227.39 158.88 227.25 L 158.30 227.30 C 156.65 226.11 154.69 225.89 152.74 225.81 C 152.60 225.71 152.31 225.50 152.16 225.40 L 150.91 224.76 C 150.42 224.56 149.44 224.17 148.95 223.97 L 147.81 223.69 L 147.71 223.06 C 148.57 223.14 150.29 223.30 151.14 223.39 L 152.03 223.55 C 152.18 223.59 152.48 223.67 152.63 223.72 C 154.98 224.75 157.46 225.43 160.01 225.79 C 161.70 227.08 163.85 227.67 165.85 226.65 C 170.60 226.86 175.35 226.62 180.10 226.86 C 181.75 227.34 183.51 227.29 185.03 226.44 C 187.07 225.99 189.12 225.62 191.20 225.39 C 192.57 226.18 194.19 225.59 194.96 224.28 C 207.53 220.92 219.09 214.13 228.24 204.90 C 226.36 202.48 223.15 200.99 222.02 198.10 Z" />
<path fill="#37332e" opacity="1.00" d=" M 106.41 235.55 C 106.87 235.49 107.79 235.39 108.26 235.34 C 108.46 235.48 108.88 235.76 109.09 235.90 C 109.28 236.15 109.66 236.66 109.85 236.91 L 109.93 237.78 L 109.19 238.00 L 107.99 237.66 C 107.72 237.49 107.18 237.15 106.91 236.98 C 106.73 236.76 106.38 236.33 106.20 236.12 L 106.41 235.55 Z" />
<path fill="#37332e" opacity="1.00" d=" M 109.93 237.78 C 110.40 237.80 111.33 237.86 111.80 237.88 C 112.13 238.43 112.80 239.52 113.13 240.06 L 112.53 240.21 C 111.89 239.75 110.61 238.84 109.97 238.39 L 109.93 237.78 Z" />
<path fill="#37332e" opacity="1.00" d=" M 113.13 240.06 L 114.01 239.82 L 114.92 240.38 L 115.00 241.02 L 114.25 241.22 L 113.23 240.73 L 113.13 240.06 Z" />
<path fill="#37332e" opacity="1.00" d=" M 115.00 241.02 L 115.56 240.70 C 116.14 241.03 117.29 241.68 117.86 242.01 L 117.66 242.82 C 117.22 242.82 116.36 242.82 115.92 242.82 C 115.71 242.57 115.29 242.07 115.08 241.81 L 115.00 241.02 Z" />
<path fill="#37332e" opacity="1.00" d=" M 117.66 242.82 C 118.16 242.86 119.16 242.94 119.66 242.99 C 120.32 243.34 121.63 244.04 122.29 244.40 C 122.44 244.49 122.74 244.68 122.89 244.78 L 123.75 245.38 L 124.22 246.13 C 123.75 246.10 122.82 246.04 122.36 246.01 L 120.68 245.96 C 120.55 245.83 120.29 245.57 120.16 245.45 L 118.51 244.41 C 118.36 244.25 118.06 243.92 117.91 243.76 L 117.66 242.82 Z" />
<path fill="#37332e" opacity="1.00" d=" M 124.22 246.13 L 124.86 246.08 L 124.97 246.67 L 124.30 246.78 L 124.22 246.13 Z" />
<path fill="#37332e" opacity="1.00" d=" M 124.97 246.67 L 125.64 246.54 C 126.24 246.77 127.44 247.23 128.04 247.46 C 128.19 247.52 128.49 247.63 128.64 247.68 L 128.64 248.40 C 128.34 248.52 127.74 248.75 127.44 248.87 C 126.84 248.47 125.63 247.69 125.03 247.29 L 124.97 246.67 Z" />
</g>
</svg>
