<?xml version="1.0" encoding="UTF-8" ?>
<!DOCTYPE svg PUBLIC "-//W3C//DTD SVG 1.1//EN" "http://www.w3.org/Graphics/SVG/1.1/DTD/svg11.dtd">
<svg width="1687pt" height="1687pt" viewBox="0 0 1687 1687" version="1.1" xmlns="http://www.w3.org/2000/svg">
<g id="#55adeeff">
<path fill="#55adee" opacity="1.00" d=" M 1032.93 373.20 C 1078.95 366.06 1127.14 372.68 1169.24 392.74 C 1195.83 405.18 1219.82 422.92 1240.04 444.16 C 1292.27 433.92 1342.57 414.44 1388.41 387.44 C 1371.61 441.07 1334.36 487.92 1286.10 516.67 C 1332.28 511.25 1377.55 498.60 1420.08 479.85 C 1388.79 526.86 1348.97 568.16 1303.22 601.26 C 1307.60 692.81 1291.33 784.94 1258.64 870.45 C 1230.14 944.88 1189.03 1014.58 1136.86 1074.90 C 1086.42 1133.35 1025.46 1182.81 957.40 1219.35 C 878.63 1261.86 790.70 1286.49 701.61 1293.82 C 650.53 1298.05 598.97 1297.29 548.16 1290.25 C 453.04 1277.31 360.86 1243.21 280.20 1191.16 C 329.66 1196.91 380.01 1195.11 428.85 1185.31 C 500.55 1171.10 568.76 1139.70 626.22 1094.53 C 583.70 1094.01 541.47 1081.17 505.63 1058.34 C 459.71 1029.31 424.38 983.84 408.08 931.99 C 442.77 938.83 478.99 937.39 513.12 928.26 C 486.75 922.80 461.31 912.88 438.34 898.80 C 410.73 881.98 386.71 859.31 368.19 832.82 C 340.28 793.08 325.39 744.41 326.26 695.86 C 358.42 713.92 394.91 723.76 431.70 725.35 C 402.84 705.63 378.09 679.78 360.39 649.58 C 338.82 613.02 327.40 570.47 328.25 528.00 C 328.39 487.80 339.58 447.75 359.85 413.06 C 405.45 468.89 460.00 517.41 520.98 555.87 C 616.68 616.49 728.22 651.95 841.39 657.26 C 832.53 618.72 833.52 577.92 844.35 539.88 C 859.51 486.27 894.71 438.72 941.42 408.38 C 968.94 390.30 1000.39 378.26 1032.93 373.20 Z" />
</g>
</svg>
