<?xml version="1.0" encoding="UTF-8" ?>
<!DOCTYPE svg PUBLIC "-//W3C//DTD SVG 1.1//EN" "http://www.w3.org/Graphics/SVG/1.1/DTD/svg11.dtd">
<svg width="697pt" height="697pt" viewBox="0 0 697 697" version="1.1" xmlns="http://www.w3.org/2000/svg">
<g id="#38985539">
<path fill="#389855" opacity="0.22" d=" M 322.54 0.00 L 330.97 0.00 C 327.89 0.81 324.70 0.80 321.54 0.81 L 322.54 0.00 Z" />
<path fill="#389855" opacity="0.22" d=" M 365.96 0.00 L 374.91 0.00 L 374.28 0.86 C 371.48 0.83 368.68 0.72 365.96 0.00 Z" />
<path fill="#389855" opacity="0.22" d=" M 294.96 3.98 C 296.12 1.82 298.87 2.72 300.79 2.97 C 299.00 3.93 296.99 4.57 294.96 3.98 Z" />
<path fill="#389855" opacity="0.22" d=" M 419.08 6.93 C 420.42 6.51 422.67 6.21 423.11 8.04 C 421.64 8.42 420.17 7.91 419.08 6.93 Z" />
<path fill="#389855" opacity="0.22" d=" M 260.73 10.82 C 261.50 9.56 262.60 9.26 264.02 9.93 C 263.09 10.93 262.00 11.23 260.73 10.82 Z" />
<path fill="#389855" opacity="0.22" d=" M 249.81 13.78 C 251.35 11.99 253.85 11.63 256.08 12.04 C 254.46 13.76 252.03 14.00 249.81 13.78 Z" />
<path fill="#389855" opacity="0.22" d=" M 465.87 20.11 C 468.43 20.86 470.98 21.68 473.39 22.86 C 470.84 22.06 468.32 21.17 465.87 20.11 Z" />
<path fill="#389855" opacity="0.22" d=" M 473.87 23.06 C 475.54 22.80 477.42 23.14 478.28 24.77 C 476.61 25.00 474.61 24.82 473.87 23.06 Z" />
<path fill="#389855" opacity="0.22" d=" M 492.83 31.05 C 496.48 32.25 499.85 34.11 503.16 36.04 C 499.66 34.50 496.21 32.84 492.83 31.05 Z" />
<path fill="#389855" opacity="0.22" d=" M 517.30 43.39 C 517.39 43.45 517.59 43.56 517.68 43.62 C 517.59 43.56 517.39 43.45 517.30 43.39 Z" />
<path fill="#389855" opacity="0.22" d=" M 175.33 45.60 C 175.43 45.54 175.62 45.43 175.71 45.38 C 175.62 45.43 175.43 45.54 175.33 45.60 Z" />
<path fill="#389855" opacity="0.22" d=" M 158.73 55.73 C 163.33 52.48 168.07 49.39 173.12 46.86 C 168.40 49.93 163.56 52.83 158.73 55.73 Z" />
<path fill="#389855" opacity="0.22" d=" M 524.29 47.38 C 524.38 47.44 524.58 47.55 524.68 47.61 C 524.58 47.55 524.38 47.44 524.29 47.38 Z" />
<path fill="#389855" opacity="0.22" d=" M 529.35 50.39 C 529.44 50.45 529.63 50.56 529.73 50.62 C 529.63 50.56 529.44 50.45 529.35 50.39 Z" />
<path fill="#389855" opacity="0.22" d=" M 149.72 61.80 C 152.38 59.61 155.13 57.50 158.26 56.02 C 155.48 58.05 152.68 60.03 149.72 61.80 Z" />
<path fill="#389855" opacity="0.22" d=" M 537.85 55.80 C 540.59 57.06 543.13 58.74 545.34 60.81 C 542.77 59.23 540.27 57.57 537.85 55.80 Z" />
<path fill="#389855" opacity="0.22" d=" M 142.68 66.80 C 144.66 64.99 146.87 63.49 149.20 62.16 C 147.07 63.77 144.90 65.32 142.68 66.80 Z" />
<path fill="#389855" opacity="0.22" d=" M 548.72 63.07 C 551.07 64.45 553.25 66.10 555.32 67.88 C 553.00 66.44 550.81 64.81 548.72 63.07 Z" />
<path fill="#389855" opacity="0.22" d=" M 559.71 71.30 C 561.93 70.88 563.65 72.91 564.17 74.86 C 562.07 74.61 560.59 73.12 559.71 71.30 Z" />
<path fill="#389855" opacity="0.22" d=" M 564.75 75.23 C 567.02 76.61 569.01 78.36 570.96 80.15 C 568.81 78.61 566.76 76.95 564.75 75.23 Z" />
<path fill="#389855" opacity="0.22" d=" M 124.84 80.91 C 125.19 78.77 127.10 77.39 129.14 77.08 C 128.78 79.22 126.83 80.49 124.84 80.91 Z" />
<path fill="#389855" opacity="0.22" d=" M 605.13 112.72 C 607.65 114.96 609.79 117.57 611.84 120.25 C 609.47 117.86 607.23 115.34 605.13 112.72 Z" />
<path fill="#389855" opacity="0.22" d=" M 82.07 123.25 C 83.53 121.28 85.12 119.41 86.86 117.69 C 85.42 119.67 83.78 121.50 82.07 123.25 Z" />
<path fill="#389855" opacity="0.22" d=" M 68.01 141.05 C 69.71 138.14 71.87 135.55 74.12 133.05 C 72.22 135.83 70.17 138.48 68.01 141.05 Z" />
<path fill="#389855" opacity="0.22" d=" M 631.18 144.62 C 633.01 146.60 634.43 148.91 635.78 151.25 C 634.07 149.17 632.58 146.92 631.18 144.62 Z" />
<path fill="#389855" opacity="0.22" d=" M 56.01 158.27 C 57.49 155.14 59.60 152.40 61.79 149.74 C 60.03 152.69 58.04 155.49 56.01 158.27 Z" />
<path fill="#389855" opacity="0.22" d=" M 335.88 158.11 C 339.35 157.53 342.85 157.12 346.38 157.26 C 342.95 158.17 339.37 157.68 335.88 158.11 Z" />
<path fill="#389855" opacity="0.22" d=" M 367.60 157.25 C 371.13 157.13 374.63 157.55 378.11 158.07 C 374.61 157.70 371.04 158.12 367.60 157.25 Z" />
<path fill="#389855" opacity="0.22" d=" M 378.96 158.31 C 380.49 157.09 383.63 157.84 384.63 159.20 C 382.68 159.37 380.60 159.56 378.96 158.31 Z" />
<path fill="#389855" opacity="0.22" d=" M 46.85 173.15 C 49.38 168.10 52.46 163.35 55.72 158.74 C 52.81 163.57 49.92 168.42 46.85 173.15 Z" />
<path fill="#389855" opacity="0.22" d=" M 323.40 160.23 C 323.82 158.71 326.70 158.28 327.97 159.17 C 326.95 160.69 324.93 160.22 323.40 160.23 Z" />
<path fill="#389855" opacity="0.22" d=" M 314.44 162.26 C 314.79 160.67 315.69 160.37 317.13 161.34 C 316.42 162.21 315.52 162.51 314.44 162.26 Z" />
<path fill="#389855" opacity="0.22" d=" M 641.98 160.88 C 644.20 161.04 644.90 163.37 644.97 165.25 C 643.17 164.46 642.30 162.72 641.98 160.88 Z" />
<path fill="#389855" opacity="0.22" d=" M 310.46 163.25 C 310.78 161.79 311.65 161.41 313.08 162.11 C 312.59 163.20 311.72 163.58 310.46 163.25 Z" />
<path fill="#389855" opacity="0.22" d=" M 303.38 165.09 C 303.74 163.05 307.43 163.05 309.13 163.14 C 307.94 164.99 305.35 165.00 303.38 165.09 Z" />
<path fill="#389855" opacity="0.22" d=" M 407.96 164.30 C 409.60 163.68 413.23 164.13 413.56 166.16 C 411.49 166.52 409.58 165.45 407.96 164.30 Z" />
<path fill="#389855" opacity="0.22" d=" M 647.40 169.31 C 647.46 169.40 647.57 169.59 647.62 169.68 C 647.57 169.59 647.46 169.40 647.40 169.31 Z" />
<path fill="#389855" opacity="0.22" d=" M 45.41 175.66 C 45.45 175.58 45.54 175.42 45.59 175.34 C 45.54 175.42 45.45 175.58 45.41 175.66 Z" />
<path fill="#389855" opacity="0.22" d=" M 264.72 181.90 C 266.72 180.28 269.05 179.18 271.41 178.19 C 269.27 179.59 267.01 180.79 264.72 181.90 Z" />
<path fill="#389855" opacity="0.22" d=" M 458.86 188.05 C 460.82 189.08 462.68 190.30 464.29 191.84 L 463.68 191.47 C 461.98 190.46 460.41 189.27 458.86 188.05 Z" />
<path fill="#389855" opacity="0.22" d=" M 242.96 196.83 C 245.13 194.63 247.64 192.81 250.30 191.26 C 247.95 193.23 245.47 195.04 242.96 196.83 Z" />
<path fill="#389855" opacity="0.22" d=" M 419.80 201.08 C 423.83 202.43 427.83 204.23 431.22 206.81 C 427.43 204.87 423.61 202.99 419.80 201.08 Z" />
<path fill="#389855" opacity="0.22" d=" M 272.71 212.83 C 274.66 211.21 276.78 209.76 279.17 208.86 C 277.07 210.27 274.90 211.57 272.71 212.83 Z" />
<path fill="#389855" opacity="0.22" d=" M 450.82 219.87 C 452.70 220.97 454.62 222.19 455.86 224.03 C 454.12 222.72 452.45 221.32 450.82 219.87 Z" />
<path fill="#389855" opacity="0.22" d=" M 498.53 224.18 L 498.21 223.74 C 503.97 230.40 509.26 237.61 513.50 245.34 C 508.69 238.15 503.80 231.04 498.53 224.18 Z" />
<path fill="#389855" opacity="0.22" d=" M 214.81 224.75 L 214.46 225.23 C 212.50 228.04 210.36 230.71 208.21 233.38 C 210.06 230.25 212.26 227.33 214.81 224.75 Z" />
<path fill="#389855" opacity="0.22" d=" M 468.10 235.84 C 470.75 237.66 472.54 240.36 474.60 242.76 C 476.79 245.50 479.26 248.06 480.84 251.22 C 476.70 246.00 472.67 240.69 468.10 235.84 Z" />
<path fill="#389855" opacity="0.22" d=" M 199.07 247.45 C 200.45 244.41 202.30 241.62 204.35 238.99 C 202.66 241.86 200.95 244.70 199.07 247.45 Z" />
<path fill="#389855" opacity="0.22" d=" M 12.03 256.12 C 11.64 253.89 11.96 251.36 13.78 249.82 C 14.01 252.06 13.72 254.47 12.03 256.12 Z" />
<path fill="#389855" opacity="0.22" d=" M 481.20 251.73 C 483.34 253.85 485.13 256.38 486.20 259.22 C 484.44 256.78 482.82 254.25 481.20 251.73 Z" />
<path fill="#389855" opacity="0.22" d=" M 226.26 261.34 C 227.16 259.30 228.38 257.43 229.83 255.74 C 228.72 257.66 227.54 259.53 226.26 261.34 Z" />
<path fill="#389855" opacity="0.22" d=" M 685.10 258.70 C 686.35 259.43 686.70 260.51 686.16 261.95 C 685.06 261.09 684.71 260.01 685.10 258.70 Z" />
<path fill="#389855" opacity="0.22" d=" M 9.93 263.99 C 9.28 262.58 9.58 261.48 10.82 260.69 C 11.25 261.96 10.96 263.06 9.93 263.99 Z" />
<path fill="#389855" opacity="0.22" d=" M 225.44 262.58 C 225.48 262.51 225.56 262.38 225.60 262.31 C 225.56 262.38 225.48 262.51 225.44 262.58 Z" />
<path fill="#389855" opacity="0.22" d=" M 685.99 262.81 C 687.34 263.36 687.70 264.40 687.07 265.94 C 686.05 265.08 685.69 264.04 685.99 262.81 Z" />
<path fill="#389855" opacity="0.22" d=" M 220.59 271.38 C 221.93 268.80 222.89 265.97 224.82 263.73 C 222.17 268.93 219.55 274.14 216.95 279.36 C 217.62 276.48 219.36 274.03 220.59 271.38 Z" />
<path fill="#389855" opacity="0.22" d=" M 270.30 279.18 C 269.39 277.68 269.71 276.76 271.26 276.41 C 271.49 277.54 271.16 278.46 270.30 279.18 Z" />
<path fill="#389855" opacity="0.22" d=" M 270.04 279.98 L 269.97 280.40 C 269.38 283.72 268.82 287.05 268.22 290.37 C 268.33 286.84 269.01 283.35 270.04 279.98 Z" />
<path fill="#389855" opacity="0.22" d=" M 180.40 292.12 C 179.84 290.49 180.05 286.63 182.11 286.35 C 182.25 288.40 181.69 290.50 180.40 292.12 Z" />
<path fill="#389855" opacity="0.22" d=" M 532.92 290.00 C 534.00 292.34 534.51 294.87 534.88 297.41 C 534.19 294.95 533.52 292.48 532.92 290.00 Z" />
<path fill="#389855" opacity="0.22" d=" M 179.04 294.27 L 179.91 294.12 C 179.72 294.60 179.35 295.56 179.16 296.05 L 178.65 295.25 L 179.04 294.27 Z" />
<path fill="#389855" opacity="0.22" d=" M 177.19 304.94 C 176.18 304.00 176.68 301.27 178.24 301.41 C 178.28 302.63 178.43 304.23 177.19 304.94 Z" />
<path fill="#389855" opacity="0.22" d=" M 310.02 304.18 C 310.58 303.90 311.69 303.35 312.24 303.07 C 308.30 305.46 308.66 310.43 308.70 314.41 C 307.21 310.94 308.65 307.41 310.02 304.18 Z" />
<path fill="#389855" opacity="0.22" d=" M 694.21 305.61 C 694.82 308.45 694.99 311.34 695.09 314.24 C 694.66 311.38 694.35 308.50 694.21 305.61 Z" />
<path fill="#389855" opacity="0.22" d=" M 537.83 313.36 C 539.06 314.57 539.97 317.58 538.56 319.12 C 537.26 317.44 537.77 315.29 537.83 313.36 Z" />
<path fill="#389855" opacity="0.22" d=" M 268.21 315.61 C 268.84 319.09 269.43 322.58 270.04 326.06 C 269.00 322.67 268.36 319.15 268.21 315.61 Z" />
<path fill="#389855" opacity="0.22" d=" M 174.24 328.46 C 174.17 324.92 174.59 321.40 175.14 317.92 C 174.77 321.42 175.08 325.01 174.24 328.46 Z" />
<path fill="#389855" opacity="0.22" d=" M 538.97 320.91 C 539.49 324.73 539.89 328.57 539.75 332.43 C 538.68 328.68 539.38 324.74 538.97 320.91 Z" />
<path fill="#389855" opacity="0.22" d=" M 0.00 322.00 L 0.88 322.00 C 0.82 324.90 0.78 327.83 0.00 330.65 L 0.00 322.00 Z" />
<path fill="#389855" opacity="0.22" d=" M 270.30 326.85 C 271.18 327.52 271.49 328.41 271.25 329.52 C 269.67 329.20 269.36 328.31 270.30 326.85 Z" />
<path fill="#389855" opacity="0.22" d=" M 174.27 351.42 L 174.73 352.59 C 174.92 355.43 174.82 358.28 175.12 361.11 C 174.55 357.91 174.14 354.67 174.27 351.42 Z" />
<path fill="#389855" opacity="0.22" d=" M 506.92 365.76 C 506.60 363.85 507.24 362.01 507.89 360.25 C 508.59 361.75 509.15 365.58 506.92 365.76 Z" />
<path fill="#389855" opacity="0.22" d=" M 537.82 366.60 C 537.72 364.68 537.27 362.52 538.58 360.88 C 539.94 362.41 539.06 365.44 537.82 366.60 Z" />
<path fill="#389855" opacity="0.22" d=" M 175.21 361.70 C 175.98 365.81 176.48 369.97 177.13 374.10 C 176.05 370.05 175.41 365.88 175.21 361.70 Z" />
<path fill="#389855" opacity="0.22" d=" M 339.21 362.03 C 341.54 363.95 343.69 366.07 345.74 368.28 C 343.29 366.49 341.18 364.33 339.21 362.03 Z" />
<path fill="#389855" opacity="0.22" d=" M 0.00 365.31 C 0.66 368.19 0.88 371.15 0.79 374.10 L 0.00 375.30 L 0.00 365.31 Z" />
<path fill="#389855" opacity="0.22" d=" M 536.77 372.68 C 536.77 371.09 536.28 368.99 537.90 368.00 C 538.68 369.34 538.21 372.11 536.77 372.68 Z" />
<path fill="#389855" opacity="0.22" d=" M 346.72 369.19 C 348.64 370.58 350.48 372.09 352.09 373.85 C 350.15 372.47 348.33 370.93 346.72 369.19 Z" />
<path fill="#389855" opacity="0.22" d=" M 429.53 373.05 C 432.35 373.69 434.82 375.24 436.83 377.30 C 434.51 375.69 432.06 374.28 429.53 373.05 Z" />
<path fill="#389855" opacity="0.22" d=" M 178.35 379.87 C 179.22 380.59 179.53 381.51 179.28 382.61 C 177.72 382.24 177.41 381.32 178.35 379.87 Z" />
<path fill="#389855" opacity="0.22" d=" M 534.08 384.89 C 534.27 384.40 534.65 383.43 534.84 382.94 L 535.36 383.73 L 534.96 384.72 L 534.08 384.89 Z" />
<path fill="#389855" opacity="0.22" d=" M 179.12 383.92 C 180.19 384.40 180.56 385.29 180.24 386.59 C 178.80 386.24 178.42 385.35 179.12 383.92 Z" />
<path fill="#389855" opacity="0.22" d=" M 384.48 389.39 C 387.79 389.39 391.24 389.28 394.01 387.20 C 391.63 389.61 387.67 390.61 384.48 389.39 Z" />
<path fill="#389855" opacity="0.22" d=" M 530.08 398.73 C 530.43 397.10 529.98 394.73 531.77 393.87 C 532.37 395.23 531.92 398.81 530.08 398.73 Z" />
<path fill="#389855" opacity="0.22" d=" M 217.07 400.76 C 220.36 407.46 223.54 414.23 227.62 420.50 C 228.45 422.21 230.25 424.00 229.36 426.02 C 228.39 420.68 224.33 416.69 222.14 411.86 C 220.54 408.12 218.13 404.72 217.07 400.76 Z" />
<path fill="#389855" opacity="0.22" d=" M 526.95 406.86 C 527.18 405.44 527.16 403.56 528.70 402.86 C 529.35 404.11 528.74 407.20 526.95 406.86 Z" />
<path fill="#389855" opacity="0.22" d=" M 485.13 422.34 C 487.07 419.07 488.93 415.76 490.97 412.56 C 489.46 416.05 487.52 419.37 485.13 422.34 Z" />
<path fill="#389855" opacity="0.22" d=" M 6.92 419.00 C 7.87 420.14 8.39 421.62 8.04 423.12 C 6.21 422.63 6.51 420.38 6.92 419.00 Z" />
<path fill="#389855" opacity="0.22" d=" M 368.44 426.75 C 369.54 426.51 370.44 426.82 371.14 427.68 C 369.68 428.64 368.78 428.32 368.44 426.75 Z" />
<path fill="#389855" opacity="0.22" d=" M 418.83 427.68 C 419.54 426.82 420.45 426.51 421.57 426.75 C 421.20 428.31 420.28 428.62 418.83 427.68 Z" />
<path fill="#389855" opacity="0.22" d=" M 371.92 427.95 C 375.40 428.57 378.89 429.16 382.37 429.79 C 378.82 429.62 375.31 429.00 371.92 427.95 Z" />
<path fill="#389855" opacity="0.22" d=" M 407.64 429.78 C 411.11 429.14 414.59 428.57 418.07 427.95 C 414.68 428.99 411.18 429.65 407.64 429.78 Z" />
<path fill="#389855" opacity="0.22" d=" M 505.89 445.72 C 506.24 443.99 507.16 442.45 508.78 441.65 C 509.29 443.18 507.64 446.16 505.89 445.72 Z" />
<path fill="#389855" opacity="0.22" d=" M 454.12 457.31 C 456.41 455.14 458.82 453.11 461.23 451.08 C 459.33 453.64 456.66 455.45 454.12 457.31 Z" />
<path fill="#389855" opacity="0.22" d=" M 20.11 465.88 C 21.17 468.33 22.06 470.85 22.87 473.40 C 21.69 471.00 20.87 468.44 20.11 465.88 Z" />
<path fill="#389855" opacity="0.22" d=" M 275.66 468.99 C 277.93 470.22 280.13 471.59 282.34 472.94 C 280.00 471.84 277.48 470.90 275.66 468.99 Z" />
<path fill="#389855" opacity="0.22" d=" M 282.86 473.23 C 286.60 475.17 290.39 476.99 294.15 478.90 C 290.17 477.55 286.20 475.79 282.86 473.23 Z" />
<path fill="#389855" opacity="0.22" d=" M 23.04 473.83 C 24.81 474.57 24.99 476.58 24.76 478.26 C 23.13 477.38 22.79 475.50 23.04 473.83 Z" />
<path fill="#389855" opacity="0.22" d=" M 173.05 487.34 C 173.83 484.50 174.52 481.59 175.88 478.96 C 174.97 481.77 174.05 484.57 173.05 487.34 Z" />
<path fill="#389855" opacity="0.22" d=" M 27.04 483.74 C 28.15 485.86 29.10 488.06 29.88 490.33 C 28.75 488.21 27.81 486.00 27.04 483.74 Z" />
<path fill="#389855" opacity="0.22" d=" M 205.17 489.61 C 204.41 488.83 204.29 486.31 205.60 486.26 C 205.90 486.78 206.52 487.81 206.82 488.33 L 207.41 488.42 C 208.00 489.28 205.85 489.97 205.17 489.61 Z" />
<path fill="#389855" opacity="0.22" d=" M 169.99 496.46 C 170.80 493.56 171.52 490.60 172.87 487.89 C 172.01 490.78 171.07 493.64 169.99 496.46 Z" />
<path fill="#389855" opacity="0.22" d=" M 31.04 492.81 C 32.83 496.18 34.48 499.63 36.02 503.13 C 34.10 499.82 32.24 496.46 31.04 492.81 Z" />
<path fill="#389855" opacity="0.22" d=" M 660.98 502.12 C 662.22 499.24 663.60 496.42 665.10 493.66 C 664.11 496.65 662.59 499.42 660.98 502.12 Z" />
<path fill="#389855" opacity="0.22" d=" M 257.60 502.75 C 260.68 501.51 263.82 500.39 266.90 499.14 C 269.12 500.21 271.27 501.43 273.34 502.79 C 271.23 501.84 269.22 500.69 267.11 499.77 C 263.83 500.28 260.85 502.01 257.60 502.75 Z" />
<path fill="#389855" opacity="0.22" d=" M 433.65 506.06 C 436.38 504.51 439.17 503.06 442.08 501.87 C 439.47 503.64 436.58 504.95 433.65 506.06 Z" />
<path fill="#389855" opacity="0.22" d=" M 654.18 515.34 C 655.59 512.35 657.12 509.42 658.76 506.56 C 657.54 509.63 656.09 512.62 654.18 515.34 Z" />
<path fill="#389855" opacity="0.22" d=" M 329.42 520.83 C 331.64 520.69 334.07 520.21 336.01 521.67 C 334.17 523.03 330.90 521.94 329.42 520.83 Z" />
<path fill="#389855" opacity="0.22" d=" M 336.82 521.92 C 340.64 522.34 344.56 521.70 348.31 522.73 C 344.46 522.91 340.63 522.40 336.82 521.92 Z" />
<path fill="#389855" opacity="0.22" d=" M 365.65 522.74 C 369.38 521.75 373.29 522.39 377.09 521.88 C 373.30 522.45 369.48 522.86 365.65 522.74 Z" />
<path fill="#389855" opacity="0.22" d=" M 641.06 537.30 C 643.94 532.41 646.93 527.58 649.97 522.78 C 647.28 527.79 644.56 532.81 641.06 537.30 Z" />
<path fill="#389855" opacity="0.22" d=" M 156.52 539.62 C 157.01 538.02 157.52 536.45 158.08 534.88 C 157.80 535.94 157.23 538.07 156.95 539.14 C 159.99 538.07 163.01 536.93 166.08 535.98 C 163.03 537.52 159.72 538.45 156.52 539.62 Z" />
<path fill="#389855" opacity="0.22" d=" M 55.85 537.93 C 57.61 540.34 59.26 542.82 60.82 545.37 C 58.78 543.16 57.09 540.66 55.85 537.93 Z" />
<path fill="#389855" opacity="0.22" d=" M 630.02 553.40 C 631.53 551.05 633.12 548.75 634.86 546.57 C 633.50 549.01 631.93 551.34 630.02 553.40 Z" />
<path fill="#389855" opacity="0.22" d=" M 624.05 561.29 C 625.84 558.75 627.65 556.22 629.67 553.86 C 627.94 556.44 626.20 559.03 624.05 561.29 Z" />
<path fill="#389855" opacity="0.22" d=" M 71.28 559.68 C 73.09 560.57 74.58 562.04 74.83 564.13 C 72.86 563.65 70.87 561.88 71.28 559.68 Z" />
<path fill="#389855" opacity="0.22" d=" M 620.04 566.18 C 620.49 564.14 621.88 562.58 623.72 561.66 C 624.07 563.91 622.07 565.73 620.04 566.18 Z" />
<path fill="#389855" opacity="0.22" d=" M 75.21 564.72 C 76.92 566.72 78.58 568.77 80.10 570.91 C 78.33 568.97 76.58 566.98 75.21 564.72 Z" />
<path fill="#389855" opacity="0.22" d=" M 615.21 572.31 C 616.60 570.35 618.15 568.53 619.71 566.72 C 618.57 568.85 616.91 570.61 615.21 572.31 Z" />
<path fill="#389855" opacity="0.22" d=" M 580.71 607.94 C 584.38 604.14 588.43 600.72 592.26 597.08 C 588.89 601.20 584.70 604.47 580.71 607.94 Z" />
<path fill="#389855" opacity="0.22" d=" M 112.73 605.14 C 115.53 607.40 118.23 609.79 120.80 612.31 C 117.95 610.11 115.13 607.84 112.73 605.14 Z" />
<path fill="#389855" opacity="0.22" d=" M 546.58 634.86 C 548.73 633.14 551.00 631.57 553.32 630.08 C 551.28 631.95 548.99 633.51 546.58 634.86 Z" />
<path fill="#389855" opacity="0.22" d=" M 144.65 631.20 C 146.93 632.60 149.17 634.07 151.24 635.78 C 148.92 634.43 146.62 633.03 144.65 631.20 Z" />
<path fill="#389855" opacity="0.22" d=" M 529.73 645.88 C 532.17 644.14 534.66 642.49 537.29 641.06 C 534.94 642.91 532.46 644.62 529.73 645.88 Z" />
<path fill="#389855" opacity="0.22" d=" M 160.85 641.96 C 162.69 642.32 164.43 643.18 165.28 644.95 C 163.38 644.92 161.02 644.19 160.85 641.96 Z" />
<path fill="#389855" opacity="0.22" d=" M 522.82 649.94 C 524.91 648.55 527.07 647.29 529.30 646.14 C 527.24 647.57 525.06 648.82 522.82 649.94 Z" />
<path fill="#389855" opacity="0.22" d=" M 169.24 647.34 C 169.37 647.42 169.63 647.59 169.76 647.67 C 169.63 647.59 169.37 647.42 169.24 647.34 Z" />
<path fill="#389855" opacity="0.22" d=" M 506.56 658.76 C 509.42 657.12 512.34 655.59 515.33 654.19 C 512.62 656.10 509.63 657.54 506.56 658.76 Z" />
<path fill="#389855" opacity="0.22" d=" M 258.70 685.09 C 260.00 684.66 261.06 685.01 261.88 686.15 C 260.47 686.68 259.41 686.33 258.70 685.09 Z" />
<path fill="#389855" opacity="0.22" d=" M 262.80 685.99 C 264.03 685.70 265.08 686.06 265.96 687.07 C 264.41 687.70 263.35 687.34 262.80 685.99 Z" />
<path fill="#389855" opacity="0.22" d=" M 411.15 691.06 C 412.63 690.13 414.34 689.53 416.11 689.99 C 415.33 692.03 412.78 691.43 411.15 691.06 Z" />
<path fill="#389855" opacity="0.22" d=" M 305.60 694.21 C 308.46 694.35 311.31 694.65 314.15 695.08 C 311.28 694.98 308.41 694.81 305.60 694.21 Z" />
</g>
<g id="#0dc143ff">
<path fill="#0dc143" opacity="1.00" d=" M 330.97 0.00 L 365.96 0.00 C 368.68 0.72 371.48 0.83 374.28 0.86 C 389.35 1.58 404.29 4.03 419.08 6.93 C 420.17 7.91 421.64 8.42 423.11 8.04 C 437.70 10.62 451.92 15.17 465.87 20.11 C 468.32 21.17 470.84 22.06 473.39 22.86 L 473.87 23.06 C 474.61 24.82 476.61 25.00 478.28 24.77 C 483.17 26.78 488.04 28.83 492.83 31.05 C 496.21 32.84 499.66 34.50 503.16 36.04 C 507.92 38.40 512.71 40.71 517.30 43.39 C 517.39 43.45 517.59 43.56 517.68 43.62 C 519.88 44.88 522.08 46.12 524.29 47.38 C 524.38 47.44 524.58 47.55 524.68 47.61 C 526.23 48.53 527.79 49.45 529.35 50.39 C 529.44 50.45 529.63 50.56 529.73 50.62 C 532.50 52.24 535.15 54.06 537.85 55.80 C 540.27 57.57 542.77 59.23 545.34 60.81 C 546.45 61.57 547.58 62.32 548.72 63.07 C 550.81 64.81 553.00 66.44 555.32 67.88 C 556.83 68.96 558.33 70.05 559.71 71.30 C 560.59 73.12 562.07 74.61 564.17 74.86 L 564.75 75.23 C 566.76 76.95 568.81 78.61 570.96 80.15 C 583.08 90.21 594.46 101.14 605.13 112.72 C 607.23 115.34 609.47 117.86 611.84 120.25 C 618.67 128.06 625.03 136.27 631.18 144.62 C 632.58 146.92 634.07 149.17 635.78 151.25 C 638.02 154.35 640.17 157.52 641.98 160.88 C 642.30 162.72 643.17 164.46 644.97 165.25 C 645.78 166.60 646.57 167.95 647.40 169.31 C 647.46 169.40 647.57 169.59 647.62 169.68 C 664.10 197.45 677.01 227.42 685.10 258.70 C 684.71 260.01 685.06 261.09 686.16 261.95 L 685.99 262.81 C 685.69 264.04 686.05 265.08 687.07 265.94 C 690.11 279.04 692.51 292.27 694.21 305.61 C 694.35 308.50 694.66 311.38 695.09 314.24 C 695.74 319.09 695.84 323.99 696.17 328.87 C 696.38 329.32 696.79 330.23 697.00 330.68 L 697.00 366.57 L 696.03 366.66 C 695.53 388.09 691.88 409.37 687.10 430.24 C 681.86 452.03 674.41 473.28 665.10 493.66 C 663.60 496.42 662.22 499.24 660.98 502.12 C 660.23 503.60 659.49 505.07 658.76 506.56 C 657.12 509.42 655.59 512.35 654.18 515.34 C 652.76 517.81 651.39 520.31 649.97 522.78 C 646.93 527.58 643.94 532.41 641.06 537.30 C 639.14 540.49 637.03 543.54 634.86 546.57 C 633.12 548.75 631.53 551.05 630.02 553.40 L 629.67 553.86 C 627.65 556.22 625.84 558.75 624.05 561.29 L 623.72 561.66 C 621.88 562.58 620.49 564.14 620.04 566.18 L 619.71 566.72 C 618.15 568.53 616.60 570.35 615.21 572.31 C 607.95 580.91 600.38 589.27 592.26 597.08 C 588.43 600.72 584.38 604.14 580.71 607.94 C 571.95 615.76 562.81 623.15 553.32 630.08 C 551.00 631.57 548.73 633.14 546.58 634.86 C 543.54 637.02 540.49 639.15 537.29 641.06 C 534.66 642.49 532.17 644.14 529.73 645.88 L 529.30 646.14 C 527.07 647.29 524.91 648.55 522.82 649.94 C 520.33 651.37 517.82 652.76 515.33 654.19 C 512.34 655.59 509.42 657.12 506.56 658.76 C 478.08 673.31 447.58 684.22 416.11 689.99 C 414.34 689.53 412.63 690.13 411.15 691.06 C 398.22 693.42 385.17 695.14 372.05 695.94 C 370.08 696.20 367.71 695.48 366.11 697.00 L 330.55 697.00 C 328.95 695.69 326.86 696.08 324.97 695.95 C 321.35 695.82 317.74 695.50 314.15 695.08 C 311.31 694.65 308.46 694.35 305.60 694.21 C 292.27 692.51 279.04 690.11 265.96 687.07 C 265.08 686.06 264.03 685.70 262.80 685.99 L 261.88 686.15 C 261.06 685.01 260.00 684.66 258.70 685.09 C 227.45 677.02 197.50 664.12 169.76 647.67 C 169.63 647.59 169.37 647.42 169.24 647.34 C 167.94 646.50 166.61 645.72 165.28 644.95 C 164.43 643.18 162.69 642.32 160.85 641.96 C 157.49 640.16 154.33 638.01 151.24 635.78 C 149.17 634.07 146.93 632.60 144.65 631.20 C 136.48 625.19 128.45 618.98 120.80 612.31 C 118.23 609.79 115.53 607.40 112.73 605.14 C 101.13 594.46 90.18 583.05 80.10 570.91 C 78.58 568.77 76.92 566.72 75.21 564.72 L 74.83 564.13 C 74.58 562.04 73.09 560.57 71.28 559.68 C 67.51 555.13 64.15 550.25 60.82 545.37 C 59.26 542.82 57.61 540.34 55.85 537.93 C 48.51 526.77 41.87 515.14 36.02 503.13 C 34.48 499.63 32.83 496.18 31.04 492.81 C 30.65 491.97 30.27 491.15 29.88 490.33 C 29.10 488.06 28.15 485.86 27.04 483.74 C 26.28 481.91 25.52 480.08 24.76 478.26 C 24.99 476.58 24.81 474.57 23.04 473.83 L 22.87 473.40 C 22.06 470.85 21.17 468.33 20.11 465.88 C 15.17 451.92 10.62 437.71 8.04 423.12 C 8.39 421.62 7.87 420.14 6.92 419.00 C 3.97 404.18 1.63 389.20 0.79 374.10 C 0.88 371.15 0.66 368.19 0.00 365.31 L 0.00 330.65 C 0.78 327.83 0.82 324.90 0.88 322.00 C 1.92 302.43 5.44 283.04 9.93 263.99 C 10.96 263.06 11.25 261.96 10.82 260.69 C 11.21 259.16 11.63 257.64 12.03 256.12 C 13.72 254.47 14.01 252.06 13.78 249.82 C 21.43 223.99 32.04 199.05 45.41 175.66 C 45.45 175.58 45.54 175.42 45.59 175.34 C 45.90 174.80 46.53 173.70 46.85 173.15 C 49.92 168.42 52.81 163.57 55.72 158.74 L 56.01 158.27 C 58.04 155.49 60.03 152.69 61.79 149.74 C 63.73 146.75 65.85 143.89 68.01 141.05 C 70.17 138.48 72.22 135.83 74.12 133.05 C 76.72 129.75 79.33 126.45 82.07 123.25 C 83.78 121.50 85.42 119.67 86.86 117.69 C 98.58 104.51 111.11 91.99 124.84 80.91 C 126.83 80.49 128.78 79.22 129.14 77.08 C 133.72 73.75 138.04 70.06 142.68 66.80 C 144.90 65.32 147.07 63.77 149.20 62.16 L 149.72 61.80 C 152.68 60.03 155.48 58.05 158.26 56.02 L 158.73 55.73 C 163.56 52.83 168.40 49.93 173.12 46.86 C 173.67 46.55 174.78 45.91 175.33 45.60 C 175.43 45.54 175.62 45.43 175.71 45.38 C 199.08 32.02 224.00 21.43 249.81 13.78 C 252.03 14.00 254.46 13.76 256.08 12.04 C 257.62 11.63 259.17 11.21 260.73 10.82 C 262.00 11.23 263.09 10.93 264.02 9.93 C 274.26 7.61 284.51 5.12 294.96 3.98 C 296.99 4.57 299.00 3.93 300.79 2.97 C 307.68 1.98 314.60 1.23 321.54 0.81 C 324.70 0.80 327.89 0.81 330.97 0.00 M 335.88 158.11 C 333.24 158.43 330.60 158.79 327.97 159.17 C 326.70 158.28 323.82 158.71 323.40 160.23 C 321.27 160.28 319.17 160.80 317.13 161.34 C 315.69 160.37 314.79 160.67 314.44 162.26 L 313.08 162.11 C 311.65 161.41 310.78 161.79 310.46 163.25 L 309.13 163.14 C 307.43 163.05 303.74 163.05 303.38 165.09 L 302.43 165.09 C 291.78 168.66 281.25 172.75 271.41 178.19 C 269.05 179.18 266.72 180.28 264.72 181.90 C 259.73 184.72 255.02 188.01 250.30 191.26 C 247.64 192.81 245.13 194.63 242.96 196.83 C 239.40 199.61 236.00 202.60 232.68 205.67 C 226.46 212.05 219.82 218.07 214.46 225.23 L 214.81 224.75 C 212.26 227.33 210.06 230.25 208.21 233.38 C 206.85 235.20 205.56 237.07 204.35 238.99 C 202.30 241.62 200.45 244.41 199.07 247.45 C 191.86 259.34 186.43 272.23 182.10 285.42 L 182.11 286.35 C 180.05 286.63 179.84 290.49 180.40 292.12 C 180.28 292.62 180.03 293.62 179.91 294.12 L 179.04 294.27 L 178.65 295.25 L 179.16 296.05 C 178.70 297.79 178.20 299.58 178.24 301.41 C 176.68 301.27 176.18 304.00 177.19 304.94 C 176.44 309.25 175.76 313.58 175.14 317.92 C 174.59 321.40 174.17 324.92 174.24 328.46 C 173.87 336.07 173.79 343.84 174.27 351.42 C 174.14 354.67 174.55 357.91 175.12 361.11 L 175.21 361.70 C 175.41 365.88 176.05 370.05 177.13 374.10 C 177.49 376.03 177.78 377.98 178.35 379.87 C 177.41 381.32 177.72 382.24 179.28 382.61 L 179.12 383.92 C 178.42 385.35 178.80 386.24 180.24 386.59 C 180.05 388.04 180.71 389.42 181.06 390.81 C 184.69 403.20 189.62 415.22 195.66 426.64 C 188.32 443.79 182.00 461.35 175.88 478.96 C 174.52 481.59 173.83 484.50 173.05 487.34 L 172.87 487.89 C 171.52 490.60 170.80 493.56 169.99 496.46 C 165.86 509.21 162.05 522.07 158.08 534.88 C 157.52 536.45 157.01 538.02 156.52 539.62 C 159.72 538.45 163.03 537.52 166.08 535.98 C 196.63 525.04 227.10 513.85 257.60 502.75 C 260.85 502.01 263.83 500.28 267.11 499.77 C 269.22 500.69 271.23 501.84 273.34 502.79 C 290.88 511.76 309.91 517.99 329.42 520.83 C 330.90 521.94 334.17 523.03 336.01 521.67 L 336.82 521.92 C 340.63 522.40 344.46 522.91 348.31 522.73 C 354.04 523.18 359.91 523.17 365.65 522.74 C 369.48 522.86 373.30 522.45 377.09 521.88 C 377.47 521.80 378.23 521.64 378.61 521.55 C 397.65 519.56 416.28 514.08 433.65 506.06 C 436.58 504.95 439.47 503.64 442.08 501.87 C 467.30 488.50 489.79 469.30 505.89 445.72 C 507.64 446.16 509.29 443.18 508.78 441.65 C 512.28 437.33 514.66 432.19 517.63 427.50 C 521.03 420.78 524.75 414.09 526.95 406.86 C 528.74 407.20 529.35 404.11 528.70 402.86 C 529.19 401.49 529.72 400.13 530.08 398.73 C 531.92 398.81 532.37 395.23 531.77 393.87 C 532.56 390.89 533.98 387.99 534.08 384.89 L 534.96 384.72 L 535.36 383.73 L 534.84 382.94 C 535.59 379.54 536.48 376.14 536.77 372.68 C 538.21 372.11 538.68 369.34 537.90 368.00 L 537.82 366.60 C 539.06 365.44 539.94 362.41 538.58 360.88 C 539.77 351.51 540.43 341.89 539.75 332.43 C 539.89 328.57 539.49 324.73 538.97 320.91 C 538.87 320.46 538.66 319.56 538.56 319.12 C 539.97 317.58 539.06 314.57 537.83 313.36 C 537.38 307.98 536.09 302.67 534.88 297.41 C 534.51 294.87 534.00 292.34 532.92 290.00 C 528.71 274.26 521.84 259.30 513.50 245.34 C 509.26 237.61 503.97 230.40 498.21 223.74 L 498.53 224.18 C 488.43 211.81 476.74 200.68 463.68 191.47 L 464.29 191.84 C 462.68 190.30 460.82 189.08 458.86 188.05 C 445.20 178.71 430.16 171.55 414.56 166.10 L 413.56 166.16 C 413.23 164.13 409.60 163.68 407.96 164.30 C 400.38 161.93 392.52 160.02 384.63 159.20 C 383.63 157.84 380.49 157.09 378.96 158.31 L 378.11 158.07 C 374.63 157.55 371.13 157.13 367.60 157.25 C 360.57 156.84 353.41 156.83 346.38 157.26 C 342.85 157.12 339.35 157.53 335.88 158.11 Z" />
<path fill="#0dc143" opacity="1.00" d=" M 279.17 208.86 C 320.98 183.41 375.44 180.35 419.80 201.08 C 423.61 202.99 427.43 204.87 431.22 206.81 C 438.10 210.61 444.68 214.97 450.82 219.87 C 452.45 221.32 454.12 222.72 455.86 224.03 C 459.24 226.32 461.56 229.78 464.89 232.13 C 465.89 233.42 466.96 234.66 468.10 235.84 C 472.67 240.69 476.70 246.00 480.84 251.22 L 481.20 251.73 C 482.82 254.25 484.44 256.78 486.20 259.22 C 500.01 281.27 508.31 306.95 509.16 333.01 C 509.92 337.95 509.79 343.04 509.06 347.98 C 508.93 352.07 508.93 356.25 507.89 360.25 C 507.24 362.01 506.60 363.85 506.92 365.76 C 504.81 382.17 498.77 398.00 490.97 412.56 C 488.93 415.76 487.07 419.07 485.13 422.34 C 478.45 432.91 470.34 442.53 461.23 451.08 C 458.82 453.11 456.41 455.14 454.12 457.31 C 422.47 483.92 379.60 496.51 338.61 491.46 C 323.32 489.32 308.14 485.54 294.15 478.90 C 290.39 476.99 286.60 475.17 282.86 473.23 L 282.34 472.94 C 280.13 471.59 277.93 470.22 275.66 468.99 C 273.94 468.06 272.32 466.95 270.80 465.72 C 249.54 472.90 228.65 481.21 207.41 488.42 L 206.82 488.33 C 206.52 487.81 205.90 486.78 205.60 486.26 C 211.52 469.53 217.63 452.85 224.54 436.49 C 226.16 433.00 227.35 429.31 229.36 426.02 C 230.25 424.00 228.45 422.21 227.62 420.50 C 223.54 414.23 220.36 407.46 217.07 400.76 C 211.23 387.64 207.58 373.60 205.55 359.41 C 202.20 332.35 205.93 304.36 216.95 279.36 C 219.55 274.14 222.17 268.93 224.82 263.73 L 225.44 262.58 C 225.48 262.51 225.56 262.38 225.60 262.31 L 226.26 261.34 C 227.54 259.53 228.72 257.66 229.83 255.74 C 241.02 238.73 255.72 224.05 272.71 212.83 C 274.90 211.57 277.07 210.27 279.17 208.86 M 279.36 254.47 C 276.26 261.59 272.36 268.67 271.26 276.41 C 269.71 276.76 269.39 277.68 270.30 279.18 L 269.97 280.40 L 270.04 279.98 C 269.01 283.35 268.33 286.84 268.22 290.37 C 267.22 298.72 267.23 307.26 268.21 315.61 C 268.36 319.15 269.00 322.67 270.04 326.06 L 270.30 326.85 C 269.36 328.31 269.67 329.20 271.25 329.52 C 272.27 336.75 275.76 343.45 278.62 350.13 C 285.18 363.30 294.06 375.25 304.43 385.66 C 313.57 394.96 322.91 404.27 333.99 411.28 C 343.22 417.63 353.47 422.43 364.12 425.88 C 365.54 426.20 366.94 426.91 368.44 426.75 C 368.78 428.32 369.68 428.64 371.14 427.68 L 371.92 427.95 C 375.31 429.00 378.82 429.62 382.37 429.79 C 390.73 430.79 399.29 430.78 407.64 429.78 C 411.18 429.65 414.68 428.99 418.07 427.95 L 418.83 427.68 C 420.28 428.62 421.20 428.31 421.57 426.75 C 429.45 425.35 437.00 421.88 444.03 418.06 C 448.90 412.44 451.63 404.45 449.82 397.07 C 448.27 389.06 442.82 382.54 436.83 377.30 C 434.82 375.24 432.35 373.69 429.53 373.05 C 416.37 368.28 400.25 374.60 394.01 387.20 C 391.24 389.28 387.79 389.39 384.48 389.39 C 372.41 387.55 361.02 382.18 352.09 373.85 C 350.48 372.09 348.64 370.58 346.72 369.19 C 346.48 368.96 345.99 368.50 345.74 368.28 C 343.69 366.07 341.54 363.95 339.21 362.03 C 332.11 355.05 325.32 347.75 319.27 339.82 C 313.54 332.48 310.56 323.43 308.70 314.41 C 308.66 310.43 308.30 305.46 312.24 303.07 C 325.51 295.83 330.66 276.97 322.81 264.02 C 316.75 255.55 307.73 248.29 296.97 247.54 C 290.54 247.57 284.05 250.08 279.36 254.47 Z" />
</g>
</svg>
